<svg width="165" height="33" viewBox="0 0 165 33" fill="none" xmlns="http://www.w3.org/2000/svg">
<g clip-path="url(#clip0)">
<path d="M16.3762 12.1275C14.6437 12.1275 13.2412 13.53 13.2412 15.2625C13.2412 16.995 14.6437 18.3975 16.3762 18.3975C18.1087 18.3975 19.5112 16.995 19.5112 15.2625C19.5112 13.53 18.1087 12.1275 16.3762 12.1275ZM16.7475 15.2625C16.7475 15.3863 16.7062 15.51 16.5825 15.5925L15.51 16.4175C15.4275 16.4588 15.345 16.5 15.2625 16.5C15.1387 16.5 15.015 16.4588 14.9325 16.335C14.8087 16.17 14.8087 15.9225 15.015 15.7988L15.9225 15.0975V13.8188C15.9225 13.6125 16.0875 13.4475 16.2937 13.4475C16.5 13.4475 16.665 13.6125 16.665 13.8188V15.2625H16.7475ZM25.74 27.5963C25.6162 27.4313 25.4512 27.39 25.245 27.39C25.0387 27.39 24.8325 27.4725 24.6675 27.6375L24.255 27.9263C24.0487 28.05 23.925 28.2563 23.8425 28.4213C23.76 28.6275 23.76 28.7925 23.8837 28.9575L24.585 29.9475C24.6262 30.03 24.7087 30.0713 24.7912 30.1125C24.8737 30.1538 24.9562 30.1538 25.0387 30.1538C25.245 30.1538 25.4512 30.0713 25.6987 29.9063L26.1112 29.6175C26.3175 29.4938 26.4412 29.3288 26.5237 29.1225C26.6062 28.9163 26.6062 28.7513 26.4825 28.5863L25.74 27.5963ZM25.6162 29.205L25.4512 29.3288C25.245 29.4525 25.2037 29.37 25.1625 29.3288L24.5437 28.4625C24.5025 28.4213 24.5025 28.38 24.5025 28.38C24.5025 28.3388 24.5437 28.2563 24.6262 28.215L24.7912 28.0913C24.8737 28.05 24.915 28.0088 24.9562 28.0088C24.9975 28.0088 25.0387 28.05 25.0387 28.05L25.6575 28.9163C25.6987 28.9575 25.6987 28.9988 25.6987 28.9988C25.74 29.1225 25.6575 29.1638 25.6162 29.205ZM22.8525 27.9675C22.8525 27.9675 22.8525 27.9263 22.8525 27.9675C22.8112 27.9263 22.77 27.9263 22.77 27.9263L22.11 28.215C22.0687 28.215 22.0687 28.2563 22.0687 28.2975L22.5637 29.37L21.6975 29.7413L21.2025 28.6688C21.2025 28.6688 21.2025 28.6275 21.1612 28.6275H21.12L20.46 28.9163C20.4187 28.9163 20.4187 28.9575 20.4187 28.9988L21.6562 31.8038C21.6562 31.845 21.6975 31.845 21.6975 31.845C21.6975 31.845 21.6975 31.845 21.7387 31.845L22.3987 31.5563C22.3987 31.5563 22.44 31.5563 22.44 31.515V31.4738L21.9037 30.2363L22.77 29.865L23.3062 31.1025C23.3062 31.1438 23.3475 31.1438 23.3887 31.1438L24.0487 30.855C24.0487 30.855 24.09 30.855 24.09 30.8138V30.7725L22.8525 27.9675ZM3.83625 23.8013C3.83625 23.595 3.795 23.3888 3.67125 23.1825L3.465 22.8113C3.42375 22.7288 3.3825 22.6463 3.42375 22.605C3.42375 22.5638 3.465 22.5638 3.50625 22.5225L3.83625 22.3575C3.8775 22.3575 3.91875 22.3163 3.91875 22.3575C3.96 22.3575 4.00125 22.44 4.08375 22.5225L4.2075 22.77C4.33125 22.9763 4.2075 23.0175 4.2075 23.0588L4.00125 23.1825C4.00125 23.1825 3.96 23.1825 3.96 23.2238C3.96 23.265 3.96 23.265 3.96 23.265L4.29 23.8838C4.29 23.925 4.33125 23.925 4.3725 23.925L4.62 23.8013C4.785 23.7188 4.8675 23.5538 4.90875 23.3475C4.90875 23.1413 4.8675 22.935 4.74375 22.7288L4.49625 22.2338C4.3725 22.0275 4.24875 21.8625 4.0425 21.7388C3.8775 21.615 3.67125 21.615 3.50625 21.6975L3.0525 21.9038C2.97 21.8625 2.92875 21.945 2.8875 22.0275C2.76375 22.275 2.805 22.5638 2.97 22.935L3.17625 23.3063C3.3 23.5125 3.2175 23.5538 3.17625 23.595L2.59875 23.8838C2.5575 23.8838 2.51625 23.925 2.51625 23.8838C2.475 23.8838 2.43375 23.8013 2.35125 23.7188L2.2275 23.4713C2.18625 23.3888 2.18625 23.3475 2.18625 23.265C2.18625 23.2238 2.2275 23.1825 2.26875 23.1825L2.5575 23.0175C2.5575 23.0175 2.59875 23.0175 2.59875 22.9763V22.935L2.26875 22.3163C2.26875 22.3163 2.26875 22.275 2.2275 22.275H2.18625L1.815 22.4813C1.7325 22.5225 1.65 22.605 1.60875 22.6875C1.485 22.935 1.52625 23.2238 1.69125 23.595L1.93875 24.09C2.0625 24.2963 2.18625 24.4613 2.35125 24.585C2.475 24.6675 2.5575 24.7088 2.68125 24.7088C2.76375 24.7088 2.84625 24.7088 2.8875 24.6675L3.58875 24.2963C3.75375 24.1725 3.83625 24.0488 3.83625 23.8013ZM12.6225 29.7825H12.5812L11.7562 30.36L11.4262 29.4525C11.4262 29.4525 11.4262 29.4113 11.385 29.4113L10.725 29.205C10.6837 29.205 10.6837 29.205 10.6837 29.205C10.6837 29.205 10.6425 29.2463 10.6837 29.2463L11.22 30.7725L10.9312 31.68C10.9312 31.7213 10.9312 31.7625 10.9725 31.7625L11.6325 31.9688C11.6325 31.9688 11.6325 31.9688 11.6737 31.9688C11.6737 31.9688 11.715 31.9688 11.715 31.9275L12.0037 31.02L13.3237 30.1125L13.365 30.0713C13.365 30.03 13.365 30.03 13.3237 30.03L12.6225 29.7825ZM4.125 26.4413C4.00125 26.2763 4.08375 26.1938 4.08375 26.1525L5.0325 25.41L5.28 25.6988C5.28 25.6988 5.32125 25.6988 5.32125 25.74H5.3625L5.6925 25.4925L5.73375 25.4513V25.41L5.48625 25.1213L5.8575 24.8325L5.89875 24.7913V24.75L5.48625 24.1725C5.48625 24.1313 5.445 24.1313 5.40375 24.1725L5.0325 24.4613L4.82625 24.1725C4.82625 24.1725 4.785 24.1725 4.785 24.1313H4.74375L4.41375 24.3788L4.3725 24.42V24.4613L4.57875 24.75L3.5475 25.575C3.465 25.6163 3.42375 25.6988 3.3825 25.8225C3.3 26.07 3.3825 26.4 3.63 26.6888L3.83625 26.9363L3.8775 26.9775H3.91875L4.24875 26.73L4.29 26.6888V26.6475L4.125 26.4413ZM28.71 24.3375C28.6275 24.255 28.545 24.255 28.4625 24.2138C28.1737 24.2138 27.9262 24.3375 27.6787 24.6263L27.555 24.7913C27.39 24.9563 27.3075 25.1625 27.3075 25.41C27.1012 25.4513 26.895 25.575 26.73 25.8225L26.5237 25.9875C26.4412 26.1113 26.3587 26.235 26.3175 26.3588L26.2762 26.3175C26.235 26.2763 26.1937 26.3175 26.1937 26.3175L25.74 26.8538V26.895C25.74 26.895 25.74 26.9363 25.7812 26.9363L27.5137 28.4213H27.555C27.555 28.4213 27.5962 28.4213 27.5962 28.38L28.05 27.8438V27.8025C28.05 27.8025 28.05 27.7613 28.0087 27.7613L26.8125 26.73C26.7712 26.6888 26.7712 26.6475 26.7712 26.565C26.7712 26.4825 26.8125 26.4 26.895 26.3175L26.9775 26.235C27.1425 26.07 27.225 26.1113 27.225 26.1525L28.5037 27.225C28.545 27.2663 28.5862 27.225 28.5862 27.225L29.04 26.6888V26.6475C29.04 26.6475 29.04 26.6063 28.9987 26.6063L27.7612 25.5338C27.7612 25.5338 27.72 25.4925 27.72 25.4513C27.72 25.3275 27.7612 25.245 27.8437 25.1213L27.9262 25.0388C28.0087 24.9563 28.05 24.915 28.0912 24.915C28.1325 24.915 28.1325 24.915 28.1737 24.9563L29.4525 26.0288H29.4937H29.535L29.9887 25.4925C30.03 25.4513 29.9887 25.41 29.9887 25.41L28.71 24.3375ZM10.725 28.4213C10.6837 28.4213 10.6837 28.38 10.725 28.4213L10.065 28.05C10.0237 28.05 9.9825 28.05 9.9825 28.0913L9.6525 28.6688C9.61125 28.6275 9.57 28.545 9.44625 28.5038L9.075 28.2563C8.86875 28.1325 8.6625 28.0913 8.45625 28.0913C8.25 28.0913 8.085 28.1738 8.0025 28.3388L7.38375 29.37C7.3425 29.4525 7.30125 29.535 7.3425 29.6175C7.38375 29.9063 7.54875 30.1125 7.87875 30.3188L8.20875 30.525C8.29125 30.5663 8.415 30.6075 8.4975 30.6488C8.4975 30.6488 8.4975 30.6488 8.4975 30.69C8.4975 30.69 8.4975 30.7313 8.53875 30.7313L9.1575 31.0613C9.1575 31.0613 9.1575 31.0613 9.19875 31.0613C9.19875 31.0613 9.24 31.0613 9.24 31.02L10.725 28.4625C10.725 28.4625 10.725 28.4213 10.725 28.4213ZM9.3225 29.1638L8.78625 30.1125C8.745 30.1538 8.70375 30.2363 8.4975 30.1125L8.25 29.9475C8.1675 29.9063 8.12625 29.865 8.085 29.7825C8.085 29.7413 8.085 29.7413 8.085 29.7L8.62125 28.7925C8.62125 28.7513 8.6625 28.71 8.745 28.71C8.78625 28.71 8.8275 28.71 8.91 28.7513L9.1575 28.9163C9.405 29.04 9.36375 29.1638 9.3225 29.1638ZM7.8375 27.4725L7.30125 26.9775H7.26H7.21875L6.14625 28.1738C6.105 28.215 6.0225 28.215 5.94 28.215C5.89875 28.215 5.81625 28.1738 5.73375 28.0913L5.61 27.9675C5.445 27.8025 5.48625 27.72 5.5275 27.72L6.64125 26.4825C6.6825 26.4413 6.64125 26.4 6.64125 26.4L6.105 25.9463H6.06375H6.0225L4.8675 27.225C4.785 27.3075 4.74375 27.39 4.74375 27.4725C4.7025 27.7613 4.82625 28.0088 5.15625 28.2975L5.3625 28.4625C5.48625 28.545 5.61 28.6275 5.73375 28.6688L5.6925 28.71V28.7513V28.7925L6.22875 29.2463H6.27H6.31125L7.8375 27.555C7.8375 27.5138 7.8375 27.5138 7.8375 27.4725ZM19.3462 31.8863L19.1812 31.9275C19.0987 31.9275 19.0162 31.9275 18.975 31.8863C18.9337 31.8863 18.9337 31.845 18.9337 31.8038L18.7687 30.6075L19.14 30.5663C19.1812 30.5663 19.1812 30.525 19.1812 30.4838L19.14 30.0713C19.14 30.0713 19.14 30.03 19.0987 30.03H19.0575L18.6862 30.1125L18.6037 29.6588C18.6037 29.6175 18.5625 29.6175 18.5212 29.6175L17.8612 29.7C17.8612 29.7 17.82 29.7 17.82 29.7413V29.7825L17.9025 30.2363L17.5312 30.2775C17.49 30.2775 17.49 30.3188 17.49 30.36L17.5312 30.7725C17.5312 30.7725 17.5312 30.8138 17.5725 30.8138H17.6137L17.985 30.7725L18.15 32.01C18.15 32.0925 18.1912 32.175 18.2737 32.2575C18.4387 32.4225 18.645 32.505 18.9337 32.505C19.0162 32.505 19.0987 32.505 19.1812 32.505L19.5112 32.4638C19.5525 32.4638 19.5525 32.4225 19.5525 32.3813L19.5112 31.9688C19.4287 31.9275 19.3875 31.8863 19.3462 31.8863ZM16.335 29.535L15.3037 29.4938C15.2625 29.4938 15.2625 29.4938 15.2625 29.535L14.025 32.5463V32.5875L14.0662 32.6288L14.7675 32.67C14.8087 32.67 14.8087 32.67 14.8087 32.6288L15.0562 31.9688L16.2937 32.01L16.5 32.7113C16.5 32.7525 16.5412 32.7525 16.5412 32.7525L17.2425 32.7938C17.2425 32.7938 17.2837 32.7938 17.2837 32.7525V32.7113L16.2937 29.6175C16.3762 29.535 16.3762 29.535 16.335 29.535ZM15.345 31.4325L15.84 30.3188L16.2525 31.4738L15.345 31.4325ZM2.3925 20.955C2.10375 20.13 1.8975 19.2638 1.77375 18.3975H1.0725C1.19625 19.3463 1.4025 20.2538 1.69125 21.12L2.3925 20.955ZM16.3762 0C7.3425 0 0 7.30125 0 16.335C0 17.0363 0.04125 17.7375 0.12375 18.3975H1.0725C0.99 17.7375 0.94875 17.0363 0.94875 16.335C0.94875 7.8375 7.8375 0.94875 16.3762 0.94875C24.8737 0.94875 31.8037 7.8375 31.8037 16.335C31.8037 17.0363 31.7625 17.7375 31.68 18.3975H32.5875C32.67 17.7375 32.7112 17.0363 32.7112 16.335C32.7525 7.30125 25.41 0 16.3762 0ZM31.02 22.3988L30.8137 22.275H30.7725C30.7725 22.275 30.7312 22.275 30.7312 22.3163L30.4012 22.935C30.4012 22.9763 30.4012 23.0175 30.4425 23.0175L30.5662 23.1C30.6075 23.1 30.69 23.1825 30.6075 23.3888L30.525 23.5538C30.4837 23.6363 30.4425 23.6775 30.4012 23.7188C30.36 23.7188 30.36 23.76 30.2775 23.7188L29.9475 23.5125L30.6075 22.2338C30.6075 22.1925 30.6075 22.1513 30.5662 22.1513L29.9475 21.8625C29.7825 21.78 29.5762 21.78 29.4112 21.9038C29.2462 22.0275 29.1225 22.1513 28.9987 22.3988L28.7925 22.8525C28.6687 23.0588 28.6275 23.3063 28.6275 23.5125C28.6275 23.7188 28.7512 23.8838 28.9162 23.9663L29.9887 24.5025C30.0712 24.5438 30.1125 24.5438 30.195 24.5438C30.2362 24.5438 30.2362 24.5438 30.2775 24.5438C30.5662 24.5025 30.7725 24.2963 30.9375 23.9663L31.1437 23.5125C31.2675 23.3063 31.3087 23.1 31.2675 22.8938C31.2675 22.6463 31.185 22.4813 31.02 22.3988ZM29.4525 23.3063L29.3287 23.2238C29.2875 23.2238 29.205 23.1413 29.2875 22.935L29.37 22.7288C29.4112 22.6463 29.4525 22.605 29.4937 22.5638C29.535 22.5638 29.535 22.5225 29.6175 22.5638L29.7412 22.6463L29.4525 23.3063ZM9.44625 15.345H8.0025C7.3425 15.345 6.72375 14.9325 6.47625 14.3138C6.22875 13.695 6.3525 12.9938 6.8475 12.4988L6.88875 12.4575L15.3862 4.82625C15.7162 4.5375 16.1287 4.3725 16.5412 4.3725C16.995 4.3725 17.4075 4.5375 17.6962 4.82625L26.1937 12.4575L26.235 12.4988C26.73 12.9525 26.8537 13.695 26.6062 14.3138C26.3587 14.9325 25.74 15.345 25.08 15.345H23.6362V18.3563H30.9375C30.8137 19.2225 30.6075 20.0888 30.3187 20.9138L30.9787 21.0788C31.2675 20.2125 31.4737 19.2638 31.5975 18.3563H30.8962C30.9787 17.6963 31.0612 16.995 31.0612 16.2938C31.0612 8.1675 24.4612 1.5675 16.2937 1.5675C8.12625 1.5675 1.52625 8.1675 1.52625 16.2938C1.52625 16.995 1.60875 17.6963 1.69125 18.3563H9.36375V15.345H9.44625Z" fill="#0071C2"/>
<path d="M92.4826 20.9963C91.0801 20.7488 88.7289 20.4188 88.7289 18.1088C88.6876 16.665 89.3476 15.7575 90.6676 14.7263C90.9976 14.4375 92.0289 13.7363 93.5552 13.4888C94.2564 13.365 94.8339 13.2825 94.8339 12.54C94.8339 12.4163 94.8339 11.55 93.8026 11.55C93.5139 11.55 85.9239 12.21 84.4389 12.2513C83.8614 12.2925 83.0776 12.3338 83.0776 13.2C83.0776 13.9838 83.5726 14.19 83.9851 14.19C84.1914 14.19 88.9764 13.695 89.4714 13.6125C88.3989 14.4788 86.7901 15.7575 86.7901 18.2738C86.7901 18.8925 86.8314 20.0888 88.0276 21.2025C89.0176 22.1513 91.2039 22.8938 92.4001 22.8938C92.9777 22.8938 93.3076 22.5225 93.3076 21.9038C93.3076 21.12 92.7714 21.0375 92.4826 20.9963Z" fill="#424242"/>
<path d="M61.6689 14.2725C60.1014 14.2725 58.6989 14.4787 56.8427 15.0975C56.0177 15.345 55.4814 15.51 55.4814 16.2112C55.4814 16.7062 55.8114 17.2012 56.3477 17.2012C56.5952 17.2012 56.9664 17.0362 57.0077 17.0362C59.2352 16.2525 59.7714 16.0875 61.0089 16.0875C62.7414 16.0875 63.7727 16.6237 63.7727 18.0675C63.7727 18.975 63.4015 19.5112 63.1127 19.7587C62.2464 20.7487 60.2252 21.2437 59.1527 21.3262C58.6577 21.3675 57.9152 21.4087 57.9152 22.275C57.9152 22.77 58.2452 23.3062 59.029 23.3062C59.359 23.265 65.794 22.8937 65.794 18.0675C65.8765 14.3137 61.9164 14.2725 61.6689 14.2725Z" fill="#424242"/>
<path d="M93.5551 13.9012C93.2663 13.9012 93.0601 14.1075 93.0601 14.3962C93.0601 14.7262 93.8026 15.7575 94.1326 15.9225C94.2563 15.9637 94.3801 16.005 94.4213 16.005C94.6276 16.005 94.9163 15.8812 94.9163 15.4687C94.8751 14.9325 94.0088 13.9012 93.5551 13.9012Z" fill="#424242"/>
<path d="M92.1113 14.7262C91.8226 14.7262 91.5751 14.9738 91.6163 15.2625C91.6163 15.4275 91.6576 15.4688 92.0288 16.005C92.6063 16.8713 92.6476 16.9538 92.9363 16.9538C93.2251 16.9538 93.5551 16.7063 93.5551 16.335C93.5551 15.8813 92.6476 14.7262 92.1113 14.7262Z" fill="#424242"/>
<path d="M50.5313 11.4263C50.1188 11.4263 49.665 11.7563 49.665 12.3338C49.665 12.6225 49.7475 12.705 49.9538 13.0763C50.7375 14.0663 50.82 14.1488 50.985 14.4788C51.6863 15.5925 51.81 15.7163 52.2638 15.7163C52.4288 15.7163 53.2125 15.5925 53.2125 14.7263C53.2125 14.3963 52.5525 13.4475 52.305 13.0763C51.2325 11.6325 50.9025 11.4263 50.5313 11.4263Z" fill="#424242"/>
<path d="M47.6852 15.5513C47.1077 15.5513 46.7777 15.5925 46.4889 15.6338V14.4787L48.1389 14.4375C48.3864 14.4375 49.2114 14.3962 49.2114 13.53C49.2114 13.2412 49.0464 12.9112 48.7989 12.7462C48.5927 12.6225 48.4689 12.6225 47.9327 12.6225L46.4889 12.705V12.375C46.4889 11.6737 46.4889 10.8487 45.5814 10.8487C44.6739 10.8487 44.6739 11.6325 44.6739 12.375V12.7875L42.3639 12.87C41.9927 12.87 41.2502 12.9112 41.2502 13.7775C41.2502 13.9837 41.3327 14.7262 42.3227 14.685L44.6739 14.6025V16.005C43.1064 16.4175 41.0439 17.6963 41.0439 19.8C41.0439 21.615 42.5289 23.1 44.5089 23.1C45.3752 23.1 46.1177 22.77 46.4064 22.1925C46.5302 21.9038 46.5714 21.6563 46.5714 20.955V17.49C46.8602 17.4488 47.1489 17.3663 47.6439 17.3663C48.3864 17.3663 50.8202 17.49 50.8202 19.2638C50.8202 20.625 49.5415 21.0375 48.5927 21.1613C47.8502 21.285 47.2314 21.3675 47.2314 22.1513C47.2314 22.8113 47.6027 23.1 48.2627 23.1C50.7789 23.1 52.8002 21.5325 52.8002 19.2225C52.8415 16.9125 50.5727 15.5513 47.6852 15.5513ZM44.7152 20.5013C44.7152 20.9963 44.7152 21.1613 44.4264 21.1613C43.7664 21.1613 43.0239 20.6663 43.0239 19.7175C43.0239 19.3463 43.1889 18.315 44.7152 17.9025V20.5013V20.5013Z" fill="#424242"/>
<path d="M76.2298 16.0875C75.941 16.0875 73.8785 16.0875 72.8473 17.1187C73.301 16.2112 73.4248 15.8812 73.796 14.8912C75.0335 14.85 77.8385 14.685 78.9936 14.52C79.7361 14.3962 79.8598 13.9012 79.8598 13.6125C79.8598 13.2 79.6536 12.705 78.9936 12.705C78.7873 12.705 77.7973 12.8287 77.591 12.87C76.766 12.9525 76.0648 12.9937 74.456 13.035C74.5385 12.705 74.6623 12.1687 74.6623 11.9212C74.621 10.9725 73.796 10.9725 73.7135 10.9725C73.3835 10.9725 73.0535 11.1375 72.9298 11.4675C72.9298 11.5087 72.641 12.9937 72.5998 13.035H70.166C69.5885 13.035 69.1348 13.365 69.1348 13.9837C69.1348 14.52 69.5473 14.85 70.001 14.8912H72.0635C71.7748 15.7162 71.5273 16.2937 70.826 17.5725C70.4548 18.315 70.4135 18.3975 70.4135 18.645C70.4135 19.14 70.7848 19.6762 71.3623 19.6762C71.651 19.6762 71.7335 19.635 72.5585 19.0162C73.0535 18.6862 74.3323 17.6962 76.106 17.6962C77.7148 17.6962 78.3335 18.645 78.3335 19.2637C78.3335 19.8 77.8798 21.2025 75.0335 21.2025C74.5385 21.2025 73.8373 21.1612 73.301 21.0787C73.136 21.0375 73.0535 21.0375 72.8885 21.0375C72.3935 21.0375 72.0223 21.4087 72.0223 21.9862C72.0223 22.935 72.8885 23.1 74.456 23.1C76.6423 23.1 77.591 22.7287 78.251 22.3987C79.5298 21.78 80.2311 20.5425 80.2311 19.3462C80.1073 17.6137 78.6636 16.0875 76.2298 16.0875Z" fill="#424242"/>
<path d="M58.4923 12.5812C60.0185 13.2825 62.4935 13.53 63.071 13.53C63.731 13.53 63.9785 13.035 63.9785 12.6225C63.9785 12.54 63.9785 11.7975 63.1123 11.715C62.3285 11.6325 61.5035 11.55 60.0598 11.1788C59.8123 11.1375 58.8635 10.7663 58.6573 10.7663C58.0798 10.7663 57.791 11.3025 57.791 11.6737C57.8323 12.3337 58.2448 12.4987 58.4923 12.5812Z" fill="#424242"/>
<path d="M156.337 7.92H153.079C153.079 7.30125 152.707 7.0125 152.006 7.0125C151.305 7.0125 150.975 7.30125 150.975 7.92H147.675C146.685 7.92 146.19 8.45625 146.19 9.44624V10.6012C146.19 11.1375 146.479 11.385 147.097 11.385C147.716 11.385 148.005 11.1375 148.005 10.6012V9.69374H156.007V10.6012C156.007 11.1375 156.296 11.385 156.915 11.385C157.534 11.385 157.822 11.1375 157.822 10.6012V9.44624C157.864 8.45625 157.327 7.92 156.337 7.92Z" fill="#424242"/>
<path d="M156.956 17.6137H153.038V16.3762H155.719C156.255 16.3762 156.503 16.0875 156.503 15.51C156.503 14.9325 156.255 14.6437 155.719 14.6437H153.038V13.365H155.719C156.255 13.365 156.544 13.0762 156.544 12.4987C156.544 11.88 156.255 11.5912 155.719 11.5912H153.038V11.4262C153.038 10.8075 152.708 10.5187 152.006 10.5187C151.305 10.5187 150.975 10.8075 150.975 11.4262V11.55H148.294C147.758 11.55 147.51 11.88 147.51 12.4575C147.51 13.035 147.758 13.3237 148.294 13.3237H150.975V14.6025H148.253C147.881 14.6025 147.469 14.7675 147.469 15.4687C147.469 16.0462 147.716 16.335 148.253 16.335H150.975V17.5725H147.015C146.644 17.5725 146.231 17.7375 146.231 18.4387C146.231 19.1812 146.685 19.305 147.015 19.305H156.956C157.493 19.305 157.74 19.0162 157.74 18.4387C157.781 17.9025 157.493 17.6137 156.956 17.6137Z" fill="#424242"/>
<path d="M160.792 21.2025V8.86876C160.792 8.29126 160.462 8.00251 159.802 8.00251C159.142 8.00251 158.854 8.29126 158.854 8.86876V21.1613C158.854 21.7388 159.184 22.0275 159.802 22.0275C160.504 22.0688 160.792 21.78 160.792 21.2025Z" fill="#424242"/>
<path d="M108.24 15.2625H118.016C118.594 15.2625 118.882 14.9325 118.882 14.3138C118.882 13.695 118.594 13.365 118.016 13.365H114.139V10.725H117.274C117.851 10.725 118.14 10.395 118.14 9.77625C118.14 8.91 117.604 8.78625 117.274 8.78625H114.139V8.085C114.139 7.425 113.767 7.13625 113.066 7.13625C112.365 7.13625 112.035 7.425 112.035 8.085V8.78625H108.982C108.405 8.78625 108.116 9.11625 108.116 9.77625C108.116 10.4363 108.364 10.725 108.982 10.725H112.035V13.365H108.24C107.662 13.365 107.374 13.695 107.374 14.3138C107.374 14.9738 107.621 15.2625 108.24 15.2625Z" fill="#424242"/>
<path d="M155.347 20.4187H148.582C147.592 20.4187 146.974 21.0787 146.974 22.0687V24.255C146.974 25.245 147.592 25.905 148.582 25.905H155.347C156.337 25.905 156.956 25.245 156.956 24.255V22.0687C156.997 21.0787 156.337 20.4187 155.347 20.4187ZM155.017 24.0487H148.995V22.275H155.017V24.0487Z" fill="#424242"/>
<path d="M163.433 7.17751C162.773 7.17751 162.484 7.46626 162.484 8.04376V24.09H160.999C160.504 24.09 160.174 24.5025 160.174 25.08C160.174 25.6575 160.545 26.1113 160.999 26.1113H162.938C163.928 26.1113 164.423 25.575 164.423 24.585V8.04376C164.423 7.46626 164.093 7.17751 163.433 7.17751Z" fill="#424242"/>
<path d="M118.058 17.5313H117.109V16.2113C117.109 15.7163 116.655 15.345 116.078 15.345C115.5 15.345 115.046 15.7163 115.046 16.2113V17.5313H108.281C107.704 17.5313 107.415 17.8613 107.415 18.5213C107.415 19.1813 107.663 19.47 108.281 19.47H115.005V23.9663H113.438C112.943 23.9663 112.571 24.42 112.571 24.9975C112.571 25.575 112.943 26.0288 113.438 26.0288H115.459C116.449 26.0288 117.068 25.3688 117.068 24.3788V19.47H118.016C118.305 19.5113 118.553 19.4288 118.718 19.305C118.883 19.14 118.965 18.8925 118.965 18.5625C118.924 17.8613 118.635 17.5313 118.058 17.5313Z" fill="#424242"/>
<path d="M105.229 8.04375H102.3C101.269 8.04375 100.609 8.70375 100.609 9.69376V24.09C100.609 25.08 101.31 25.74 102.3 25.74H105.229C106.26 25.74 106.92 25.08 106.92 24.09V9.6525C106.92 8.70375 106.26 8.04375 105.229 8.04375ZM104.899 23.6775H102.548V17.655H104.899V23.6775ZM104.899 15.5925H102.548V10.065H104.899V15.5925Z" fill="#424242"/>
<path d="M110.468 20.7075C110.344 20.4188 110.179 20.13 109.725 20.13C109.23 20.13 108.529 20.46 108.529 20.9963C108.529 21.12 108.57 21.2438 108.611 21.3675L109.601 24.0488C109.725 24.3375 109.89 24.6263 110.344 24.6263C110.839 24.6263 111.54 24.2963 111.54 23.76C111.54 23.595 111.458 23.43 111.458 23.43L110.468 20.7075Z" fill="#424242"/>
<path d="M139.672 7.46624H135.3C134.31 7.46624 133.567 8.24999 133.567 9.19874V13.6125C133.567 14.6025 134.351 15.345 135.3 15.345H139.342V25.1625C139.342 25.8225 139.672 26.07 140.374 26.07C141.075 26.07 141.405 25.7812 141.405 25.1625V9.23999C141.405 8.24999 140.621 7.46624 139.672 7.46624ZM139.301 13.53H135.465V12.3337H139.301V13.53ZM139.301 10.6425H135.465V9.36374H139.301V10.6425Z" fill="#424242"/>
<path d="M129.773 7.46624H125.4C124.41 7.46624 123.667 8.24999 123.667 9.19874V25.3275C123.667 25.8225 124.121 26.1937 124.699 26.1937C125.276 26.1937 125.73 25.8225 125.73 25.3275V15.345H129.814C130.804 15.345 131.546 14.5612 131.546 13.6125V9.23999C131.546 8.24999 130.763 7.46624 129.773 7.46624ZM129.608 13.53H125.771V12.3337H129.608V13.53ZM129.608 10.6425H125.771V9.36374H129.608V10.6425Z" fill="#424242"/>
<path d="M135.218 16.8712H129.938C128.948 16.8712 128.205 17.655 128.205 18.6037V23.1412C128.205 24.1312 128.989 24.8737 129.938 24.8737H135.218C136.208 24.8737 136.95 24.09 136.95 23.1412V18.6037C136.95 17.655 136.166 16.8712 135.218 16.8712ZM135.011 23.1412H130.02V21.6975H135.011V23.1412ZM135.011 20.0887H130.02V18.6862H135.011V20.0887Z" fill="#424242"/>
</g>
<defs>
<clipPath id="clip0">
<rect width="164.587" height="33" fill="white"/>
</clipPath>
</defs>
</svg>
