<svg width="165" height="33" viewBox="0 0 165 33" fill="none" xmlns="http://www.w3.org/2000/svg">
<path d="M16.3762 12.1275C14.6437 12.1275 13.2412 13.53 13.2412 15.2625C13.2412 16.995 14.6437 18.3975 16.3762 18.3975C18.1087 18.3975 19.5112 16.995 19.5112 15.2625C19.5112 13.53 18.1087 12.1275 16.3762 12.1275ZM16.7475 15.2625C16.7475 15.3863 16.7062 15.51 16.5825 15.5925L15.51 16.4175C15.4275 16.4587 15.345 16.5 15.2625 16.5C15.1387 16.5 15.015 16.4587 14.9325 16.335C14.8087 16.17 14.8087 15.9225 15.015 15.7988L15.9225 15.0975V13.8188C15.9225 13.6125 16.0875 13.4475 16.2937 13.4475C16.5 13.4475 16.665 13.6125 16.665 13.8188V15.2625H16.7475ZM25.74 27.5963C25.6162 27.4313 25.4512 27.39 25.245 27.39C25.0387 27.39 24.8325 27.4725 24.6675 27.6375L24.255 27.9263C24.0487 28.05 23.925 28.2563 23.8425 28.4213C23.76 28.6275 23.76 28.7925 23.8837 28.9575L24.585 29.9475C24.6262 30.03 24.7087 30.0713 24.7912 30.1125C24.8737 30.1538 24.9562 30.1538 25.0387 30.1538C25.245 30.1538 25.4512 30.0713 25.6987 29.9063L26.1112 29.6175C26.3175 29.4938 26.4412 29.3288 26.5237 29.1225C26.6062 28.9163 26.6062 28.7513 26.4825 28.5863L25.74 27.5963ZM25.6162 29.205L25.4512 29.3288C25.245 29.4525 25.2037 29.37 25.1625 29.3288L24.5437 28.4625C24.5025 28.4213 24.5025 28.38 24.5025 28.38C24.5025 28.3388 24.5437 28.2563 24.6262 28.215L24.7912 28.0913C24.8737 28.05 24.915 28.0088 24.9562 28.0088C24.9975 28.0088 25.0387 28.05 25.0387 28.05L25.6575 28.9163C25.6987 28.9575 25.6987 28.9988 25.6987 28.9988C25.74 29.1225 25.6575 29.1638 25.6162 29.205ZM22.8525 27.9675C22.8525 27.9675 22.8525 27.9263 22.8525 27.9675C22.8112 27.9263 22.77 27.9263 22.77 27.9263L22.11 28.215C22.0687 28.215 22.0687 28.2563 22.0687 28.2975L22.5637 29.37L21.6975 29.7413L21.2025 28.6688C21.2025 28.6688 21.2025 28.6275 21.1612 28.6275H21.12L20.46 28.9163C20.4187 28.9163 20.4187 28.9575 20.4187 28.9988L21.6562 31.8038C21.6562 31.845 21.6975 31.845 21.6975 31.845C21.6975 31.845 21.6975 31.845 21.7387 31.845L22.3987 31.5563C22.3987 31.5563 22.44 31.5563 22.44 31.515V31.4738L21.9037 30.2363L22.77 29.865L23.3062 31.1025C23.3062 31.1438 23.3475 31.1438 23.3887 31.1438L24.0487 30.855C24.0487 30.855 24.09 30.855 24.09 30.8138V30.7725L22.8525 27.9675ZM3.83625 23.8013C3.83625 23.595 3.795 23.3888 3.67125 23.1825L3.465 22.8113C3.42375 22.7288 3.3825 22.6463 3.42375 22.605C3.42375 22.5638 3.465 22.5638 3.50625 22.5225L3.83625 22.3575C3.8775 22.3575 3.91875 22.3163 3.91875 22.3575C3.96 22.3575 4.00125 22.44 4.08375 22.5225L4.2075 22.77C4.33125 22.9763 4.2075 23.0175 4.2075 23.0588L4.00125 23.1825C4.00125 23.1825 3.96 23.1825 3.96 23.2238C3.96 23.265 3.96 23.265 3.96 23.265L4.29 23.8838C4.29 23.925 4.33125 23.925 4.3725 23.925L4.62 23.8013C4.785 23.7188 4.8675 23.5538 4.90875 23.3475C4.90875 23.1413 4.8675 22.935 4.74375 22.7288L4.49625 22.2338C4.3725 22.0275 4.24875 21.8625 4.0425 21.7388C3.8775 21.615 3.67125 21.615 3.50625 21.6975L3.0525 21.9038C2.97 21.8625 2.92875 21.945 2.8875 22.0275C2.76375 22.275 2.805 22.5638 2.97 22.935L3.17625 23.3063C3.3 23.5125 3.2175 23.5538 3.17625 23.595L2.59875 23.8838C2.5575 23.8838 2.51625 23.925 2.51625 23.8838C2.475 23.8838 2.43375 23.8013 2.35125 23.7188L2.2275 23.4713C2.18625 23.3888 2.18625 23.3475 2.18625 23.265C2.18625 23.2238 2.2275 23.1825 2.26875 23.1825L2.5575 23.0175C2.5575 23.0175 2.59875 23.0175 2.59875 22.9763V22.935L2.26875 22.3162C2.26875 22.3162 2.26875 22.275 2.2275 22.275H2.18625L1.815 22.4813C1.7325 22.5225 1.65 22.605 1.60875 22.6875C1.485 22.935 1.52625 23.2238 1.69125 23.595L1.93875 24.09C2.0625 24.2963 2.18625 24.4613 2.35125 24.585C2.475 24.6675 2.5575 24.7088 2.68125 24.7088C2.76375 24.7088 2.84625 24.7088 2.8875 24.6675L3.58875 24.2963C3.75375 24.1725 3.83625 24.0488 3.83625 23.8013ZM12.6225 29.7825H12.5812L11.7562 30.36L11.4262 29.4525C11.4262 29.4525 11.4262 29.4113 11.385 29.4113L10.725 29.205C10.6837 29.205 10.6837 29.205 10.6837 29.205C10.6837 29.205 10.6425 29.2463 10.6837 29.2463L11.22 30.7725L10.9312 31.68C10.9312 31.7213 10.9312 31.7625 10.9725 31.7625L11.6325 31.9688C11.6325 31.9688 11.6325 31.9688 11.6737 31.9688C11.6737 31.9688 11.715 31.9688 11.715 31.9275L12.0037 31.02L13.3237 30.1125L13.365 30.0713C13.365 30.03 13.365 30.03 13.3237 30.03L12.6225 29.7825ZM4.125 26.4413C4.00125 26.2763 4.08375 26.1938 4.08375 26.1525L5.0325 25.41L5.28 25.6988C5.28 25.6988 5.32125 25.6988 5.32125 25.74H5.3625L5.6925 25.4925L5.73375 25.4513V25.41L5.48625 25.1213L5.8575 24.8325L5.89875 24.7913V24.75L5.48625 24.1725C5.48625 24.1313 5.445 24.1313 5.40375 24.1725L5.0325 24.4613L4.82625 24.1725C4.82625 24.1725 4.785 24.1725 4.785 24.1313H4.74375L4.41375 24.3787L4.3725 24.42V24.4613L4.57875 24.75L3.5475 25.575C3.465 25.6163 3.42375 25.6988 3.3825 25.8225C3.3 26.07 3.3825 26.4 3.63 26.6888L3.83625 26.9363L3.8775 26.9775H3.91875L4.24875 26.73L4.29 26.6888V26.6475L4.125 26.4413ZM28.71 24.3375C28.6275 24.255 28.545 24.255 28.4625 24.2138C28.1737 24.2138 27.9262 24.3375 27.6787 24.6263L27.555 24.7913C27.39 24.9563 27.3075 25.1625 27.3075 25.41C27.1012 25.4513 26.895 25.575 26.73 25.8225L26.5237 25.9875C26.4412 26.1113 26.3587 26.235 26.3175 26.3588L26.2762 26.3175C26.235 26.2763 26.1937 26.3175 26.1937 26.3175L25.74 26.8538V26.895C25.74 26.895 25.74 26.9363 25.7812 26.9363L27.5137 28.4213H27.555C27.555 28.4213 27.5962 28.4213 27.5962 28.38L28.05 27.8438V27.8025C28.05 27.8025 28.05 27.7613 28.0087 27.7613L26.8125 26.73C26.7712 26.6888 26.7712 26.6475 26.7712 26.565C26.7712 26.4825 26.8125 26.4 26.895 26.3175L26.9775 26.235C27.1425 26.07 27.225 26.1113 27.225 26.1525L28.5037 27.225C28.545 27.2663 28.5862 27.225 28.5862 27.225L29.04 26.6888V26.6475C29.04 26.6475 29.04 26.6063 28.9987 26.6063L27.7612 25.5338C27.7612 25.5338 27.72 25.4925 27.72 25.4513C27.72 25.3275 27.7612 25.245 27.8437 25.1213L27.9262 25.0388C28.0087 24.9563 28.05 24.915 28.0912 24.915C28.1325 24.915 28.1325 24.915 28.1737 24.9563L29.4525 26.0288H29.4937H29.535L29.9887 25.4925C30.03 25.4513 29.9887 25.41 29.9887 25.41L28.71 24.3375ZM10.725 28.4213C10.6837 28.4213 10.6837 28.38 10.725 28.4213L10.065 28.05C10.0237 28.05 9.9825 28.05 9.9825 28.0913L9.6525 28.6688C9.61125 28.6275 9.57 28.545 9.44625 28.5038L9.075 28.2563C8.86875 28.1325 8.6625 28.0913 8.45625 28.0913C8.25 28.0913 8.085 28.1737 8.0025 28.3388L7.38375 29.37C7.3425 29.4525 7.30125 29.535 7.3425 29.6175C7.38375 29.9063 7.54875 30.1125 7.87875 30.3188L8.20875 30.525C8.29125 30.5663 8.415 30.6075 8.4975 30.6488C8.4975 30.6488 8.4975 30.6488 8.4975 30.69C8.4975 30.69 8.4975 30.7313 8.53875 30.7313L9.1575 31.0613C9.1575 31.0613 9.1575 31.0613 9.19875 31.0613C9.19875 31.0613 9.24 31.0613 9.24 31.02L10.725 28.4625V28.4213ZM9.3225 29.1637L8.78625 30.1125C8.745 30.1538 8.70375 30.2363 8.4975 30.1125L8.25 29.9475C8.1675 29.9063 8.12625 29.865 8.085 29.7825C8.085 29.7413 8.085 29.7413 8.085 29.7L8.62125 28.7925C8.62125 28.7513 8.6625 28.71 8.745 28.71C8.78625 28.71 8.8275 28.71 8.91 28.7513L9.1575 28.9163C9.405 29.04 9.36375 29.1637 9.3225 29.1637ZM7.8375 27.4725L7.30125 26.9775H7.26H7.21875L6.14625 28.1738C6.105 28.215 6.0225 28.215 5.94 28.215C5.89875 28.215 5.81625 28.1738 5.73375 28.0913L5.61 27.9675C5.445 27.8025 5.48625 27.72 5.5275 27.72L6.64125 26.4825C6.6825 26.4412 6.64125 26.4 6.64125 26.4L6.105 25.9463H6.06375H6.0225L4.8675 27.225C4.785 27.3075 4.74375 27.39 4.74375 27.4725C4.7025 27.7613 4.82625 28.0088 5.15625 28.2975L5.3625 28.4625C5.48625 28.545 5.61 28.6275 5.73375 28.6688L5.6925 28.71V28.7513V28.7925L6.22875 29.2463H6.27H6.31125L7.8375 27.555C7.8375 27.5138 7.8375 27.5138 7.8375 27.4725ZM19.3462 31.8863L19.1812 31.9275C19.0987 31.9275 19.0162 31.9275 18.975 31.8863C18.9337 31.8863 18.9337 31.845 18.9337 31.8038L18.7687 30.6075L19.14 30.5663C19.1812 30.5663 19.1812 30.525 19.1812 30.4838L19.14 30.0713C19.14 30.0713 19.14 30.03 19.0987 30.03H19.0575L18.6862 30.1125L18.6037 29.6588C18.6037 29.6175 18.5625 29.6175 18.5212 29.6175L17.8612 29.7C17.8612 29.7 17.82 29.7 17.82 29.7413V29.7825L17.9025 30.2363L17.5312 30.2775C17.49 30.2775 17.49 30.3188 17.49 30.36L17.5312 30.7725C17.5312 30.7725 17.5312 30.8138 17.5725 30.8138H17.6137L17.985 30.7725L18.15 32.01C18.15 32.0925 18.1912 32.175 18.2737 32.2575C18.4387 32.4225 18.645 32.505 18.9337 32.505C19.0162 32.505 19.0987 32.505 19.1812 32.505L19.5112 32.4637C19.5525 32.4637 19.5525 32.4225 19.5525 32.3813L19.5112 31.9688C19.4287 31.9275 19.3875 31.8863 19.3462 31.8863ZM16.335 29.535L15.3037 29.4938C15.2625 29.4938 15.2625 29.4938 15.2625 29.535L14.025 32.5463V32.5875L14.0662 32.6287L14.7675 32.67C14.8087 32.67 14.8087 32.67 14.8087 32.6287L15.0562 31.9688L16.2937 32.01L16.5 32.7113C16.5 32.7525 16.5412 32.7525 16.5412 32.7525L17.2425 32.7938C17.2425 32.7938 17.2837 32.7938 17.2837 32.7525V32.7113L16.2937 29.6175C16.3762 29.535 16.3762 29.535 16.335 29.535ZM15.345 31.4325L15.84 30.3188L16.2525 31.4738L15.345 31.4325ZM2.3925 20.955C2.10375 20.13 1.8975 19.2638 1.77375 18.3975H1.0725C1.19625 19.3463 1.4025 20.2538 1.69125 21.12L2.3925 20.955ZM16.3762 0C7.3425 0 0 7.30125 0 16.335C0 17.0363 0.04125 17.7375 0.12375 18.3975H1.0725C0.99 17.7375 0.94875 17.0363 0.94875 16.335C0.94875 7.8375 7.8375 0.94875 16.3762 0.94875C24.8737 0.94875 31.8037 7.8375 31.8037 16.335C31.8037 17.0363 31.7625 17.7375 31.68 18.3975H32.5875C32.67 17.7375 32.7112 17.0363 32.7112 16.335C32.7525 7.30125 25.41 0 16.3762 0ZM31.02 22.3988L30.8137 22.275H30.7725C30.7725 22.275 30.7312 22.275 30.7312 22.3162L30.4012 22.935C30.4012 22.9763 30.4012 23.0175 30.4425 23.0175L30.5662 23.1C30.6075 23.1 30.69 23.1825 30.6075 23.3888L30.525 23.5538C30.4837 23.6363 30.4425 23.6775 30.4012 23.7188C30.36 23.7188 30.36 23.76 30.2775 23.7188L29.9475 23.5125L30.6075 22.2338C30.6075 22.1925 30.6075 22.1513 30.5662 22.1513L29.9475 21.8625C29.7825 21.78 29.5762 21.78 29.4112 21.9038C29.2462 22.0275 29.1225 22.1513 28.9987 22.3988L28.7925 22.8525C28.6687 23.0588 28.6275 23.3063 28.6275 23.5125C28.6275 23.7188 28.7512 23.8838 28.9162 23.9663L29.9887 24.5025C30.0712 24.5438 30.1125 24.5438 30.195 24.5438C30.2362 24.5438 30.2362 24.5438 30.2775 24.5438C30.5662 24.5025 30.7725 24.2963 30.9375 23.9663L31.1437 23.5125C31.2675 23.3063 31.3087 23.1 31.2675 22.8938C31.2675 22.6463 31.185 22.4813 31.02 22.3988ZM29.4525 23.3063L29.3287 23.2238C29.2875 23.2238 29.205 23.1413 29.2875 22.935L29.37 22.7288C29.4112 22.6462 29.4525 22.605 29.4937 22.5638C29.535 22.5638 29.535 22.5225 29.6175 22.5638L29.7412 22.6463L29.4525 23.3063ZM9.44625 15.345H8.0025C7.3425 15.345 6.72375 14.9325 6.47625 14.3138C6.22875 13.695 6.3525 12.9938 6.8475 12.4988L6.88875 12.4575L15.3862 4.82625C15.7162 4.5375 16.1287 4.3725 16.5412 4.3725C16.995 4.3725 17.4075 4.5375 17.6962 4.82625L26.1937 12.4575L26.235 12.4988C26.73 12.9525 26.8537 13.695 26.6062 14.3138C26.3587 14.9325 25.74 15.345 25.08 15.345H23.6362V18.3563H30.9375C30.8137 19.2225 30.6075 20.0888 30.3187 20.9138L30.9787 21.0788C31.2675 20.2125 31.4737 19.2638 31.5975 18.3563H30.8962C30.9787 17.6963 31.0612 16.995 31.0612 16.2938C31.0612 8.1675 24.4612 1.5675 16.2937 1.5675C8.12625 1.5675 1.52625 8.1675 1.52625 16.2938C1.52625 16.995 1.60875 17.6963 1.69125 18.3563H9.36375V15.345H9.44625Z" fill="#0071C2"/>
<path d="M53.4198 21.3141H49.7654V17.7439H52.786C53.0962 17.7439 53.2985 17.5045 53.2985 17.1337C53.2985 16.7628 53.0962 16.5235 52.786 16.5235H49.7654V14.4164C49.7654 14.0826 49.5159 13.877 49.1147 13.877C48.6967 13.877 48.4371 14.0826 48.4371 14.4164V16.5235H45.8041C45.4838 16.5235 45.2782 16.7628 45.2782 17.1337C45.2782 17.4978 45.4906 17.7439 45.8041 17.7439H48.4371V21.3141H45.2107C44.9006 21.3141 44.6983 21.5534 44.6983 21.9243C44.6983 22.3086 44.8938 22.548 45.2107 22.548H53.4198C53.7368 22.548 53.9323 22.3086 53.9323 21.9243C53.9323 21.5534 53.73 21.3141 53.4198 21.3141ZM53.4468 12.016H46.9065C47.0616 11.6486 47.1964 11.271 47.3279 10.9001L47.3751 10.7585L47.3819 10.7248C47.3953 10.6675 47.4055 10.6136 47.4055 10.5529C47.4055 10.2866 47.2133 10.0944 46.8897 10.0337C46.829 10.0135 46.7717 10.0135 46.7245 10.0135C46.3064 10.0135 46.148 10.2596 46.094 10.4585C45.9187 10.9945 45.7232 11.5171 45.5108 12.0127H41.8293C41.5091 12.0127 41.3034 12.2588 41.3034 12.6364C41.3034 13.0139 41.5091 13.26 41.8293 13.26H44.8972C44.6343 13.7219 44.3477 14.2006 44.0274 14.6456C43.9566 14.6288 43.8858 14.622 43.8015 14.622C43.4138 14.622 43.1644 14.8243 43.1644 15.1345V15.7649C42.5306 16.4965 41.9035 17.1067 41.2528 17.6326C41.091 17.7607 41 17.9596 41 18.172C41 18.3338 41.0573 18.499 41.1517 18.6069C41.3675 18.8834 41.8159 18.9204 42.0923 18.6811C42.4631 18.3676 42.8374 18.0136 43.2082 17.6292C43.1779 18.0877 43.1644 18.5934 43.1644 19.2171V22.612C43.1644 22.9458 43.4071 23.1514 43.8015 23.1514C44.1926 23.1514 44.4657 22.9289 44.4657 22.612V16.1998C45.2276 15.2154 45.858 14.2276 46.3368 13.26H53.4468C53.7536 13.26 53.9593 13.0106 53.9593 12.6364C53.9593 12.252 53.7637 12.016 53.4468 12.016ZM67.404 20.9466C66.0824 20.151 65.0913 19.1295 64.3732 17.8248C65.2059 17.2483 65.9712 16.601 66.5342 15.9975C66.6353 15.8964 66.696 15.7548 66.696 15.6199C66.696 15.4345 66.6016 15.2491 66.4465 15.1244C66.2746 14.9727 66.0959 14.9423 65.9779 14.9423C65.7992 14.9423 65.6543 15.003 65.5498 15.1277C65.1317 15.6402 64.562 16.1695 63.8574 16.7055C63.6079 16.0582 63.409 15.3469 63.264 14.5782H65.5531C65.8363 14.5782 66.0251 14.3557 66.0251 14.0253C66.0251 13.6882 65.8397 13.4724 65.5531 13.4724H57.1687C56.8822 13.4724 56.6967 13.6916 56.6967 14.0253C56.6967 14.3557 56.8855 14.5782 57.1687 14.5782H59.7815C58.7465 15.1918 57.3609 15.6975 55.8978 15.9908C55.5235 16.1324 55.4426 16.3717 55.4426 16.5504C55.4426 16.6145 55.4426 16.692 55.473 16.746C55.5438 17.0393 55.7494 17.2146 56.0225 17.2146C56.0663 17.2146 56.1337 17.2146 56.2045 17.1977C57.4283 16.8977 58.6622 16.4324 59.7781 15.8526C59.9838 16.0818 60.1658 16.3245 60.3175 16.5437C58.996 17.4135 57.226 18.1585 55.537 18.5429C55.2875 18.644 55.1392 18.8665 55.1392 19.143C55.1392 19.2003 55.1392 19.2677 55.1594 19.3486C55.2572 19.6419 55.4763 19.8071 55.7629 19.8071C55.8135 19.8071 55.8809 19.8071 55.9348 19.7902C57.7924 19.2744 59.414 18.5462 60.8805 17.5686C60.9817 17.7944 61.0895 18.0574 61.1671 18.3372C59.5758 19.6149 57.4823 20.6533 55.4022 21.1893C55.1257 21.2938 54.947 21.5399 54.947 21.8198C54.947 21.9007 54.9605 21.9748 54.9808 22.0692C55.0752 22.3356 55.301 22.4974 55.5707 22.4974C55.655 22.4974 55.7191 22.4805 55.7865 22.4637C57.8666 21.8198 59.8556 20.8185 61.4132 19.6284C61.4435 19.9386 61.457 20.2218 61.457 20.4915C61.457 21.813 61.2514 21.813 60.5771 21.813C60.2568 21.813 59.859 21.7591 59.5691 21.6815C59.5084 21.6613 59.4511 21.6613 59.4039 21.6613C59.1106 21.6613 58.878 21.8535 58.8139 22.1434C58.7971 22.2142 58.7971 22.2816 58.7971 22.3255C58.7971 22.6086 58.9926 22.8413 59.2926 22.9188C59.6938 23.0166 60.1523 23.0604 60.7423 23.0604C62.1717 23.0604 62.7044 22.3794 62.7044 20.5488C62.7044 19.3823 62.5089 18.2934 62.1414 17.3966C61.7941 16.5673 61.3289 15.8323 60.7895 15.2592C61.1199 15.0435 61.4435 14.8142 61.7503 14.5782H62.0301C62.7179 18.1214 64.2687 20.6567 66.6353 22.1198C66.9994 22.3491 67.404 22.2513 67.6332 21.9479C67.7108 21.8366 67.7546 21.7018 67.7546 21.5568C67.7546 21.304 67.6265 21.0814 67.404 20.9466ZM55.9011 14.349C56.3192 14.349 56.5788 14.1433 56.5788 13.8096V12.6802C56.5788 12.5453 56.5922 12.461 56.8923 12.461H65.8195C66.1195 12.461 66.1364 12.5453 66.1364 12.6802V13.8129C66.1364 14.1501 66.3858 14.3523 66.8005 14.3523C67.2152 14.3523 67.4647 14.1501 67.4647 13.8129V12.4846C67.4647 11.6654 67.0466 11.2811 66.1532 11.2811H61.9189V10.5124C61.9189 10.1719 61.7031 10 61.2817 10C60.7322 10 60.6176 10.2798 60.6176 10.5124V11.2845H56.5619C55.6651 11.2845 55.2505 11.6654 55.2505 12.488V13.8129C55.2505 14.1501 55.4932 14.349 55.9011 14.349ZM80.997 19.4801H76.0311C76.9009 19.1969 77.8078 18.8564 78.6742 18.3608C78.954 18.1889 79.1226 17.9327 79.1226 17.6731C79.1226 17.3292 78.8327 16.982 78.182 16.982H71.2843C70.9742 16.982 70.7719 17.1943 70.7719 17.5214C70.7719 17.8619 70.9674 18.0743 71.2843 18.0743H77.0088C76.5233 18.2833 76.0547 18.4552 75.549 18.6103C75.4513 18.5631 75.3333 18.5395 75.1883 18.5395C74.7939 18.5395 74.5511 18.7418 74.5511 19.0654V19.4767H69.2953C68.9885 19.4767 68.7963 19.6958 68.7963 20.0431C68.7963 20.387 68.9986 20.6095 69.3088 20.6095H74.5478V21.5467C74.5478 21.9715 74.5478 21.9715 74.1365 21.9715C73.7791 21.9715 73.5296 21.958 73.2532 21.8804C73.1925 21.8602 73.1251 21.8602 73.061 21.8602C72.7913 21.8602 72.6025 22.0153 72.5385 22.2884C72.5216 22.3592 72.5216 22.4266 72.5216 22.4839C72.5216 22.7671 72.6767 22.9694 72.9363 23.0199C73.3375 23.1177 73.651 23.1346 74.1668 23.1346C75.3602 23.1346 75.8255 22.7536 75.8255 21.7793V20.6095H81.0105C81.3207 20.6095 81.523 20.387 81.523 20.0431C81.523 19.706 81.3106 19.4801 80.997 19.4801ZM69.4605 18.0338C69.8515 18.0338 70.0842 17.8383 70.0842 17.5079V16.6381C70.0842 16.4189 70.1448 16.365 70.4011 16.365H79.9081C80.1475 16.365 80.2082 16.4223 80.2082 16.6381V17.5079C80.2082 17.8383 80.4408 18.0338 80.8318 18.0338C81.2263 18.0338 81.4555 17.8383 81.4555 17.4944V16.5707C81.4555 15.7514 81.1049 15.357 80.3194 15.303L80.5857 11.6014V11.4362C80.5857 10.7383 80.2284 10.3978 79.4934 10.3978H77.6021C77.3291 10.3978 77.1436 10.6035 77.1436 10.9102C77.1436 11.2137 77.3223 11.4092 77.6021 11.4092H79.217C79.3384 11.4092 79.4092 11.4463 79.4092 11.6283V11.662L79.3754 12.1374H77.7134C77.4471 12.1374 77.2819 12.3228 77.2819 12.6229C77.2819 12.8993 77.4504 13.0814 77.7134 13.0814H79.3013L79.2507 13.7253H77.7134C77.4471 13.7253 77.2819 13.9107 77.2819 14.2107C77.2819 14.4939 77.4538 14.6827 77.7134 14.6827H79.19L79.1395 15.2997H76.6481C76.7357 15.2626 76.8234 15.1952 76.911 15.094C76.9953 14.9929 77.0358 14.8816 77.0358 14.7636C77.0358 14.6322 76.9785 14.5108 76.8739 14.4265L76.702 14.3018C76.5469 14.1838 76.3952 14.0725 76.2401 13.968C76.4424 13.8096 76.6447 13.6444 76.8301 13.4589C76.9144 13.3747 76.9515 13.2904 76.9515 13.1758C76.9515 13.0443 76.8807 12.9128 76.7559 12.8015C76.7357 12.7847 76.702 12.7611 76.6616 12.7341C76.7357 12.697 76.8065 12.6364 76.8706 12.5521C76.965 12.4374 77.0088 12.3329 77.0088 12.2217C77.0088 12.0767 76.9245 11.9419 76.7661 11.8306C76.5874 11.6958 76.402 11.5643 76.2098 11.4294C76.4256 11.2575 76.6447 11.0788 76.8335 10.89C76.911 10.8125 76.9549 10.7113 76.9549 10.6068C76.9549 10.4652 76.8739 10.3169 76.7425 10.2191C76.5267 10.0405 76.3278 10.027 76.0952 10.1854C76.0884 10.1888 76.0817 10.1955 76.0749 10.2023C75.839 10.4383 75.5895 10.6507 75.3164 10.8563C74.9759 10.6473 74.6084 10.4383 74.2039 10.2259C74.1601 10.2124 74.1027 10.1922 74.0387 10.1922C73.9038 10.1922 73.7622 10.2731 73.6139 10.445C73.5566 10.5428 73.5262 10.6304 73.5262 10.7181C73.5262 10.8765 73.6072 11.008 73.7454 11.0788C73.9645 11.2002 74.1735 11.3182 74.3691 11.4362L74.396 11.453C74.1162 11.6115 73.7858 11.7666 73.3476 11.9452C73.2262 12.0059 73.152 12.1307 73.152 12.279C73.152 12.3835 73.1857 12.5015 73.2363 12.5892C73.3476 12.7847 73.5532 12.8959 73.7724 12.8487C73.7252 12.8858 73.6881 12.9297 73.6544 12.9802C73.5802 13.0915 73.5499 13.1825 73.5499 13.2836C73.5499 13.4286 73.6308 13.55 73.7521 13.6005L73.9375 13.7051C74.0893 13.7927 74.241 13.877 74.3859 13.9646C74.0623 14.1265 73.7184 14.2681 73.3611 14.3928C73.2026 14.4467 73.1082 14.585 73.1082 14.7738C73.1082 14.8378 73.1183 14.9625 73.1756 15.0333C73.2296 15.1547 73.3206 15.2457 73.4285 15.2963H71.1191L71.0888 14.6794H72.5688C72.8351 14.6794 73.0003 14.4973 73.0003 14.2074C73.0003 13.9141 72.8318 13.7219 72.5688 13.7219H71.0483L71.018 13.0915H72.5823C72.8486 13.0915 73.0138 12.9094 73.0138 12.6195C73.0138 12.3262 72.8452 12.134 72.5823 12.134H70.9641L70.954 11.861C70.954 11.7194 70.9877 11.6418 71.1731 11.598C71.8103 11.453 72.3497 11.2979 72.8149 11.126C73.0071 11.0552 73.1318 10.89 73.1318 10.7046C73.1318 10.6035 73.1015 10.499 73.0239 10.3675C72.8318 10.1011 72.5688 10.0337 72.289 10.1483C71.8844 10.3304 71.3484 10.4956 70.6977 10.6372C70.0302 10.7889 69.7706 11.099 69.7706 11.7396L69.9291 15.303C69.1604 15.3671 68.8166 15.7615 68.8166 16.5673V17.491C68.8368 17.8383 69.066 18.0338 69.4605 18.0338ZM74.2713 12.7914C74.2612 12.7847 74.2511 12.7813 74.2376 12.7779L74.2039 12.7712C74.1601 12.7577 74.1162 12.7476 74.069 12.7476C74.0589 12.7476 74.0454 12.7476 74.0353 12.7476C74.423 12.5656 74.8916 12.3296 75.3366 12.0464C75.603 12.2385 75.8828 12.4408 76.1626 12.66C76.1795 12.6734 76.1963 12.6836 76.2098 12.6937C76.1727 12.7105 76.1356 12.7341 76.1019 12.7645C76.0985 12.7678 76.0952 12.7712 76.0918 12.7746C75.8794 12.987 75.64 13.1892 75.3467 13.4016C75.1411 13.2803 74.9321 13.1656 74.7231 13.0477C74.5714 12.96 74.423 12.8757 74.2713 12.7914ZM75.3333 14.5681C75.5996 14.7569 75.8929 14.9693 76.2435 15.2356C76.2772 15.2626 76.3143 15.2828 76.3514 15.2963H73.8364C74.4466 15.0401 74.9119 14.8142 75.3333 14.5681ZM87.3014 14.0725C87.3014 13.9545 87.2676 13.8365 87.1968 13.7118C87.0148 13.4421 86.6507 13.3882 86.3203 13.5904C85.555 14.0624 84.1661 14.6996 83.1614 15.0401C82.9018 15.121 82.7265 15.3536 82.7265 15.6166C82.7265 15.7009 82.7434 15.7885 82.7771 15.8694C82.8647 16.102 83.0805 16.2403 83.3502 16.2403C83.4615 16.2403 83.5727 16.22 83.6873 16.1762C84.6549 15.7953 86.1113 15.121 87.0215 14.5512C87.2002 14.44 87.3014 14.2647 87.3014 14.0725ZM89.7995 12.8218C90.0557 12.933 90.7165 13.2331 91.3166 13.6005C91.411 13.6579 91.5155 13.6882 91.6166 13.6882C91.8492 13.6882 92.0616 13.5601 92.1796 13.3511C92.2403 13.2499 92.2538 13.1387 92.2538 13.0645C92.2538 12.8757 92.1526 12.697 91.9773 12.5757C91.974 12.5757 91.974 12.5723 91.9706 12.5723C91.4784 12.2756 90.8142 11.9554 90.3659 11.7902C90.0287 11.6553 89.7118 11.8036 89.5803 12.043C89.5096 12.1475 89.4758 12.2554 89.4758 12.3768C89.4758 12.5689 89.5972 12.7375 89.7995 12.8218ZM83.2019 11.6755H87.2575C87.4868 11.6755 87.5171 11.7194 87.5171 11.8947V14.9592C87.5171 15.1985 87.5171 15.2188 87.1463 15.2188C86.8395 15.2188 86.6271 15.1783 86.3978 15.1277C86.3473 15.1075 86.2967 15.1075 86.263 15.1075C86.0102 15.1075 85.8112 15.2693 85.7438 15.5256C85.7236 15.5862 85.7236 15.6537 85.7236 15.7042C85.7236 15.9739 85.9056 16.1998 86.1652 16.2538C86.4653 16.3212 86.8159 16.3549 87.271 16.3549C88.5049 16.3549 88.7645 15.7076 88.7645 15.1648V11.7126C88.7645 10.8597 88.3802 10.4956 87.48 10.4956H83.2019C82.8816 10.4956 82.6759 10.7282 82.6759 11.0923C82.6759 11.4395 82.8883 11.6755 83.2019 11.6755ZM89.105 15.2322C89.105 15.33 89.1252 15.4177 89.1691 15.4986C89.2533 15.7211 89.4522 15.8559 89.7017 15.8559C89.7826 15.8559 89.8635 15.8425 89.9579 15.8087C90.9997 15.5053 92.2909 14.8749 93.0494 14.4164C93.2348 14.3085 93.3326 14.1433 93.3326 13.9343C93.3326 13.8264 93.2989 13.7287 93.2584 13.6309C93.1337 13.4387 92.9651 13.3376 92.7629 13.3376C92.6516 13.3376 92.5201 13.3747 92.4089 13.4387C91.6267 13.9073 90.4198 14.4366 89.5433 14.6928C89.2803 14.767 89.105 14.9794 89.105 15.2322ZM93.5753 10.4956H89.4354C89.1286 10.4956 88.9229 10.7349 88.9229 11.0923C88.9229 11.4395 89.1286 11.6755 89.4354 11.6755H93.3393C93.5686 11.6755 93.5989 11.7194 93.5989 11.8947V14.9592C93.5989 15.2558 93.5787 15.2727 93.2281 15.2727C92.8943 15.2727 92.5707 15.2188 92.3853 15.1682C92.3246 15.148 92.2572 15.148 92.2066 15.148C91.947 15.148 91.7413 15.3098 91.6706 15.5761C91.6537 15.6469 91.6537 15.7009 91.6537 15.7582C91.6537 16.0683 91.8762 16.2571 92.0886 16.3077C92.4055 16.4021 92.9854 16.4358 93.4203 16.4358C94.3844 16.4358 94.8699 16.0414 94.8699 15.2592V11.7126C94.8767 10.8597 94.489 10.4956 93.5753 10.4956ZM92.3212 16.9685H89.4388C89.5365 16.7965 89.6174 16.628 89.6747 16.5167C89.6849 16.4999 89.6882 16.4796 89.6882 16.4594C89.6882 16.4459 89.6916 16.4324 89.695 16.4189C89.6983 16.392 89.7051 16.3616 89.7051 16.3347C89.7051 16.102 89.5331 15.9099 89.2365 15.8222C89.1623 15.8087 89.0848 15.7953 89.0275 15.7953C88.7746 15.7953 88.5588 15.9301 88.4712 16.1425C88.3667 16.365 88.2217 16.6684 88.0464 16.9685H85.6191C84.6852 16.9685 84.2503 17.3461 84.2503 18.1585V21.6343C84.2503 22.467 84.6717 22.8379 85.6191 22.8379H92.3246C93.282 22.8379 93.6933 22.4772 93.6933 21.6343V18.1552C93.69 17.3326 93.2685 16.9685 92.3212 16.9685ZM92.3886 21.4253C92.3886 21.6006 92.3549 21.6445 92.1156 21.6445H85.8112C85.5753 21.6445 85.5517 21.604 85.5517 21.4253V20.3937H92.392V21.4253H92.3886ZM92.3886 19.2306H85.5483V18.3507C85.5483 18.172 85.5719 18.1316 85.8079 18.1316H92.1122C92.3549 18.1316 92.3853 18.1754 92.3853 18.3507V19.2306H92.3886ZM86.0708 12.5858C85.5618 12.2621 84.8808 11.952 84.4358 11.7902C84.0919 11.6519 83.7784 11.8036 83.6469 12.043C83.5795 12.1408 83.5424 12.2621 83.5424 12.3734C83.5424 12.5622 83.6401 12.7139 83.8256 12.8083C84.3818 13.0477 84.9482 13.3342 85.3831 13.6005C85.4741 13.6545 85.5921 13.6882 85.7101 13.6882C85.9124 13.6882 86.1079 13.5938 86.2428 13.4252C86.3136 13.3207 86.3473 13.2128 86.3473 13.0948C86.3473 12.8993 86.2461 12.7105 86.0742 12.5925C86.0742 12.5892 86.0708 12.5858 86.0708 12.5858Z" fill="#424242"/>
<path d="M109.903 20.6995C109.812 20.4473 109.658 20.1581 109.244 20.1581C108.783 20.1581 108.141 20.4675 108.141 20.9719C108.141 21.0694 108.165 21.1837 108.212 21.325L109.19 24.0521C109.281 24.3043 109.436 24.5935 109.849 24.5935C110.3 24.5935 110.952 24.311 110.952 23.7999C110.952 23.699 110.925 23.578 110.882 23.467L109.903 20.6995ZM104.644 7.93818H101.648C100.662 7.93818 100 8.567 100 9.50183V24.0521C100 24.9869 100.662 25.6157 101.648 25.6157H104.644C105.629 25.6157 106.288 24.9869 106.288 24.0521V9.49846C106.288 8.567 105.629 7.93818 104.644 7.93818ZM104.412 23.7394H101.836V17.4747H104.415V23.7394H104.412ZM104.412 15.5983H101.836V9.81455H104.415V15.5983H104.412ZM117.654 13.3285H113.639V10.4804H116.904C117.466 10.4804 117.718 10.2046 117.718 9.58253C117.718 8.95707 117.459 8.66452 116.904 8.66452H113.639V7.87429C113.639 7.27574 113.32 7 112.637 7C111.961 7 111.658 7.26901 111.658 7.87429V8.66452H108.474C107.926 8.66452 107.68 8.94699 107.68 9.58253C107.68 10.2113 107.916 10.4804 108.474 10.4804H111.658V13.3285H107.724C107.183 13.3285 106.93 13.6144 106.93 14.2264C106.93 14.8552 107.166 15.1242 107.724 15.1242H117.654C118.216 15.1242 118.468 14.8485 118.468 14.2264C118.468 13.6211 118.202 13.3285 117.654 13.3285ZM117.654 17.5554H116.595V16.1196C116.595 15.669 116.181 15.326 115.636 15.326C115.078 15.326 114.658 15.6656 114.658 16.1196V17.5554H107.724C107.176 17.5554 106.93 17.8379 106.93 18.4734C106.93 19.1022 107.166 19.3713 107.724 19.3713H114.655V24.116H112.99C112.539 24.116 112.196 24.5296 112.196 25.0743C112.196 25.6325 112.536 26.0529 112.99 26.0529H115.031C115.979 26.0529 116.595 25.4409 116.595 24.4892V19.3679H117.654C118.216 19.3679 118.468 19.0922 118.468 18.4701C118.468 17.848 118.209 17.5554 117.654 17.5554ZM134.494 16.8896H129.124C128.179 16.8896 127.436 17.6294 127.436 18.5777V23.1576C127.436 24.1025 128.176 24.8457 129.124 24.8457H134.494C135.439 24.8457 136.182 24.1059 136.182 23.1576V18.5777C136.182 17.6294 135.443 16.8896 134.494 16.8896ZM134.41 23.2182H129.168V21.5973H134.41V23.2182ZM134.41 20.1379H129.168V18.5373H134.41V20.1379ZM130.708 13.4967V9.08485C130.708 8.13995 129.968 7.3968 129.02 7.3968H124.544C123.599 7.3968 122.856 8.13658 122.856 9.08485V25.4039C122.856 25.8545 123.276 26.1975 123.835 26.1975C124.393 26.1975 124.813 25.8578 124.813 25.4039V15.1847H129.016C129.965 15.1847 130.708 14.4416 130.708 13.4967ZM128.916 13.4967H124.816V12.1045H128.916V13.4967ZM128.916 10.5812H124.816V9.12521H128.916V10.5812ZM139.034 7.3968H134.598C133.654 7.3968 132.91 8.13658 132.91 9.08485V13.4967C132.91 14.4416 133.65 15.1847 134.598 15.1847H138.782V25.1954C138.782 25.7872 139.078 26.0495 139.74 26.0495C140.416 26.0495 140.719 25.7872 140.719 25.1954V9.08485C140.722 8.13658 139.979 7.3968 139.034 7.3968ZM138.782 13.4967H134.683V12.1045H138.782V13.4967ZM138.782 10.5812H134.683V9.12521H138.782V10.5812ZM161.92 20.7836L163.043 19.4923C163.195 19.3141 163.262 19.1661 163.262 18.9946C163.262 18.5777 162.633 18.0766 162.24 18.0766C162.045 18.0766 161.846 18.1842 161.665 18.3927L160.562 19.684C160.41 19.8588 160.343 20.0135 160.343 20.1817C160.343 20.5986 160.972 21.0997 161.365 21.0997C161.618 21.0963 161.802 20.9181 161.92 20.7836ZM163.033 15.5782H155.249V13.6648H161.93C162.455 13.6648 162.7 13.3924 162.7 12.8107C162.7 12.2222 162.448 11.9364 161.93 11.9364H155.249V10.023H162.556C163.08 10.023 163.326 9.75066 163.326 9.16892C163.326 8.58045 163.074 8.29463 162.556 8.29463H155.249V7.9012C155.249 7.31945 154.943 7.04708 154.29 7.04708C153.641 7.04708 153.352 7.30937 153.352 7.9012V8.29463H146.025C145.514 8.29463 145.275 8.57373 145.275 9.16892C145.275 9.76075 145.507 10.023 146.025 10.023H153.352V11.9364H146.65C146.139 11.9364 145.9 12.2155 145.9 12.8107C145.9 13.4025 146.132 13.6648 146.65 13.6648H153.352V15.5782H145.547C145.036 15.5782 144.797 15.8573 144.797 16.4525C144.797 17.0443 145.029 17.3066 145.547 17.3066H150.171L145.124 20.6793C144.966 20.7903 144.757 20.9685 144.757 21.2611C144.757 21.6411 145.208 22.3237 145.655 22.3237C145.83 22.3237 145.981 22.2699 146.143 22.1555L153.355 17.3066H163.04C163.568 17.3066 163.81 17.0342 163.81 16.4525C163.803 15.864 163.551 15.5782 163.033 15.5782ZM156.987 18.0968C156.822 17.9085 156.627 17.8043 156.436 17.8043C156.009 17.8043 155.393 18.3927 155.393 18.8063C155.393 18.9745 155.474 19.1426 155.656 19.3511L161.819 25.8074C162.011 25.9991 162.209 26.0932 162.408 26.0932C162.835 26.0932 163.45 25.4913 163.45 25.071C163.45 24.8759 163.363 24.7011 163.164 24.5061L156.987 18.0968ZM157.038 24.2639C156.97 23.7293 156.725 23.467 156.278 23.467L151.482 23.9109V20.3868C151.482 19.8252 151.176 19.5528 150.544 19.5528C149.895 19.5528 149.606 19.8084 149.606 20.3868V24.1025L146.95 24.3615C146.66 24.3951 146.277 24.5094 146.277 25.0912C146.277 25.9587 146.731 26.0899 147.017 26.0899H147.02L156.345 25.2156C156.832 25.1651 157.061 24.9264 157.061 24.4657C157.061 24.4287 157.054 24.3884 157.048 24.3514C157.041 24.3278 157.038 24.3043 157.038 24.2639Z" fill="#424242"/>
</svg>
