<svg width="22" height="22" viewBox="0 0 22 22" fill="none" xmlns="http://www.w3.org/2000/svg">
<path d="M3 0C1.8954 0 1 0.8954 1 2V5V16V19V20C1 21.105 1.8954 22 3 22H5H17H19C20.105 22 21 21.105 21 20V19V16V5V2C21 0.8954 20.105 0 19 0H17V3V18V19H5V18V3V0H3ZM2.5 2H3.5C3.7761 2 4 2.2238 4 2.5V3.5C4 3.7762 3.7761 4 3.5 4H2.5C2.2239 4 2 3.7762 2 3.5V2.5C2 2.2238 2.2239 2 2.5 2ZM18.5 2H19.5C19.776 2 20 2.2238 20 2.5V3.5C20 3.7762 19.776 4 19.5 4H18.5C18.224 4 18 3.7762 18 3.5V2.5C18 2.2238 18.224 2 18.5 2ZM2.5 5H3.5C3.7761 5 4 5.2238 4 5.5V6.5C4 6.7762 3.7761 7 3.5 7H2.5C2.2239 7 2 6.7762 2 6.5V5.5C2 5.2238 2.2239 5 2.5 5ZM18.5 5H19.5C19.776 5 20 5.2238 20 5.5V6.5C20 6.7762 19.776 7 19.5 7H18.5C18.224 7 18 6.7762 18 6.5V5.5C18 5.2238 18.224 5 18.5 5ZM2.5 8H3.5C3.7761 8 4 8.2238 4 8.5V9.5C4 9.776 3.7761 10 3.5 10H2.5C2.2239 10 2 9.776 2 9.5V8.5C2 8.2238 2.2239 8 2.5 8ZM18.5 8H19.5C19.776 8 20 8.2238 20 8.5V9.5C20 9.776 19.776 10 19.5 10H18.5C18.224 10 18 9.776 18 9.5V8.5C18 8.2238 18.224 8 18.5 8ZM2.5 11H3.5C3.7761 11 4 11.224 4 11.5V12.5C4 12.776 3.7761 13 3.5 13H2.5C2.2239 13 2 12.776 2 12.5V11.5C2 11.224 2.2239 11 2.5 11ZM18.5 11H19.5C19.776 11 20 11.224 20 11.5V12.5C20 12.776 19.776 13 19.5 13H18.5C18.224 13 18 12.776 18 12.5V11.5C18 11.224 18.224 11 18.5 11ZM2.5 14H3.5C3.7761 14 4 14.224 4 14.5V15.5C4 15.776 3.7761 16 3.5 16H2.5C2.2239 16 2 15.776 2 15.5V14.5C2 14.224 2.2239 14 2.5 14ZM18.5 14H19.5C19.776 14 20 14.224 20 14.5V15.5C20 15.776 19.776 16 19.5 16H18.5C18.224 16 18 15.776 18 15.5V14.5C18 14.224 18.224 14 18.5 14ZM2.5 17H3.5C3.7761 17 4 17.224 4 17.5V18.5C4 18.776 3.7761 19 3.5 19H2.5C2.2239 19 2 18.776 2 18.5V17.5C2 17.224 2.2239 17 2.5 17ZM18.5 17H19.5C19.776 17 20 17.224 20 17.5V18.5C20 18.776 19.776 19 19.5 19H18.5C18.224 19 18 18.776 18 18.5V17.5C18 17.224 18.224 17 18.5 17Z" fill="#2C3E50"/>
<path d="M17 15H5.00002V21H17V15Z" fill="#E74C3C"/>
<path d="M17 0H5.00002V7H17V0Z" fill="#E74C3C"/>
<path d="M17 6H5.00002V16H17V6Z" fill="#E74C3C"/>
<path d="M17 0H5.00002V21H17V0Z" fill="#34495E"/>
<path d="M8.99998 13.9359L9.09616 7.93591L13.9998 11.0233L8.99998 13.9359Z" fill="#ECF0F1"/>
</svg>
