<svg width="18" height="21" viewBox="0 0 18 21" fill="none" xmlns="http://www.w3.org/2000/svg">
<path d="M2 3C0.8954 3 0 3.9 0 5V19C0 20.1 0.8954 21 2 21H8H10H16C17.105 21 18 20.1 18 19V5C18 3.9 17.105 3 16 3H10H8H2Z" fill="#BDC3C7"/>
<path d="M2 2C0.8954 2 0 2.8954 0 4V18C0 19.105 0.8954 20 2 20H8H10H16C17.105 20 18 19.105 18 18V4C18 2.8954 17.105 2 16 2H10H8H2Z" fill="#ECF0F1"/>
<path d="M2 2C0.8954 2 0 2.9 0 4V7H18V4C18 2.9 17.105 2 16 2H10H8H2Z" fill="#E74C3C"/>
<path d="M4.5 4.5C4.5 4.69698 4.4612 4.89204 4.38582 5.07403C4.31044 5.25601 4.19995 5.42137 4.06066 5.56066C3.92137 5.69995 3.75601 5.81044 3.57403 5.88582C3.39204 5.9612 3.19698 6 3 6C2.80302 6 2.60796 5.9612 2.42597 5.88582C2.24399 5.81044 2.07863 5.69995 1.93934 5.56066C1.80005 5.42137 1.68956 5.25601 1.61418 5.07403C1.5388 4.89204 1.5 4.69698 1.5 4.5C1.5 4.30302 1.5388 4.10796 1.61418 3.92597C1.68956 3.74399 1.80005 3.57863 1.93934 3.43934C2.07863 3.30005 2.24399 3.18956 2.42597 3.11418C2.60796 3.0388 2.80302 3 3 3C3.19698 3 3.39204 3.0388 3.57403 3.11418C3.75601 3.18956 3.92137 3.30005 4.06066 3.43934C4.19995 3.57863 4.31044 3.74399 4.38582 3.92597C4.4612 4.10796 4.5 4.30302 4.5 4.5V4.5Z" fill="#C0392B"/>
<path d="M3 0C2.4477 0 2 0.4477 2 1V4C2 4.5523 2.4477 5 3 5C3.5523 5 4 4.5523 4 4V1C4 0.4477 3.5523 0 3 0Z" fill="#BDC3C7"/>
<path d="M16.5 4.5C16.5 4.69698 16.4612 4.89204 16.3858 5.07403C16.3104 5.25601 16.1999 5.42137 16.0607 5.56066C15.9214 5.69995 15.756 5.81044 15.574 5.88582C15.392 5.9612 15.197 6 15 6C14.803 6 14.608 5.9612 14.426 5.88582C14.244 5.81044 14.0786 5.69995 13.9393 5.56066C13.8001 5.42137 13.6896 5.25601 13.6142 5.07403C13.5388 4.89204 13.5 4.69698 13.5 4.5C13.5 4.30302 13.5388 4.10796 13.6142 3.92597C13.6896 3.74399 13.8001 3.57863 13.9393 3.43934C14.0786 3.30005 14.244 3.18956 14.426 3.11418C14.608 3.0388 14.803 3 15 3C15.197 3 15.392 3.0388 15.574 3.11418C15.756 3.18956 15.9214 3.30005 16.0607 3.43934C16.1999 3.57863 16.3104 3.74399 16.3858 3.92597C16.4612 4.10796 16.5 4.30302 16.5 4.5V4.5Z" fill="#C0392B"/>
<path d="M15 0C14.448 0 14 0.4 14 1V4C14 4.5 14.448 5 15 5C15.552 5 16 4.5 16 4V1C16 0.4 15.552 0 15 0Z" fill="#BDC3C7"/>
<path d="M2 10V12H4V10H2ZM5 10V12H7V10H5ZM8 10V12H10V10H8ZM11 10V12H13V10H11ZM14 10V12H16V10H14Z" fill="#BDC3C7"/>
<path d="M2 13V15H4V13H2ZM5 13V15H7V13H5ZM8 13V15H10V13H8ZM11 13V15H13V13H11ZM14 13V15H16V13H14Z" fill="#BDC3C7"/>
<path d="M2 16V18H4V16H2ZM5 16V18H7V16H5ZM8 16V18H10V16H8ZM11 16V18H13V16H11ZM14 16V18H16V16H14Z" fill="#BDC3C7"/>
<path d="M18 7H0V8H18V7Z" fill="#C0392B"/>
</svg>
