<svg width="22" height="22" viewBox="0 0 22 22" fill="none" xmlns="http://www.w3.org/2000/svg">
<path d="M11 22C17.0751 22 22 17.0751 22 11C22 4.92487 17.0751 0 11 0C4.92487 0 0 4.92487 0 11C0 17.0751 4.92487 22 11 22Z" fill="#77B3D4"/>
<g opacity="0.2">
<path opacity="0.2" d="M17.875 11C17.875 7.58278 14.7971 4.8125 11 4.8125C7.20294 4.8125 4.125 7.58278 4.125 11C4.125 14.2893 6.97916 16.9716 10.5789 17.1683C10.8154 18.424 11 19.25 11 19.25C11 19.25 12.7342 18.2036 14.3134 16.4209C16.4361 15.3677 17.875 13.3358 17.875 11Z" fill="#231F20"/>
</g>
<path d="M16.8438 9.9C16.8438 15.0435 11 18.5625 11 18.5625C11 18.5625 7.77254 4.125 11 4.125C14.2275 4.125 16.8438 6.71069 16.8438 9.9Z" fill="white"/>
<path d="M11 16.5C14.797 16.5 17.875 13.7298 17.875 10.3125C17.875 6.89524 14.797 4.125 11 4.125C7.20304 4.125 4.125 6.89524 4.125 10.3125C4.125 13.7298 7.20304 16.5 11 16.5Z" fill="white"/>
<path d="M11 11C11.3797 11 11.6875 10.6922 11.6875 10.3125C11.6875 9.9328 11.3797 9.625 11 9.625C10.6203 9.625 10.3125 9.9328 10.3125 10.3125C10.3125 10.6922 10.6203 11 11 11Z" fill="#4F5D73"/>
<path d="M13.75 11C14.1297 11 14.4375 10.6922 14.4375 10.3125C14.4375 9.9328 14.1297 9.625 13.75 9.625C13.3703 9.625 13.0625 9.9328 13.0625 10.3125C13.0625 10.6922 13.3703 11 13.75 11Z" fill="#4F5D73"/>
<path d="M8.25 11C8.6297 11 8.9375 10.6922 8.9375 10.3125C8.9375 9.9328 8.6297 9.625 8.25 9.625C7.8703 9.625 7.5625 9.9328 7.5625 10.3125C7.5625 10.6922 7.8703 11 8.25 11Z" fill="#4F5D73"/>
</svg>
