<svg width="22" height="22" viewBox="0 0 22 22" fill="none" xmlns="http://www.w3.org/2000/svg">
<path d="M11 22C17.0751 22 22 17.0751 22 11C22 4.92487 17.0751 0 11 0C4.92487 0 0 4.92487 0 11C0 17.0751 4.92487 22 11 22Z" fill="#76C2AF"/>
<g opacity="0.2">
<path opacity="0.2" d="M9.6824 7.90625V4.8125H5.21365C4.64406 4.8125 4.1824 5.27416 4.1824 5.84375V17.5312C4.1824 18.1008 4.64406 18.5625 5.21365 18.5625H12.7762C13.3457 18.5625 13.8074 18.1008 13.8074 17.5312V8.9375H10.7137C10.1441 8.9375 9.6824 8.47584 9.6824 7.90625Z" fill="#231F20"/>
</g>
<path d="M12.7761 4.125H9.68239H5.21364C4.64404 4.125 4.18239 4.58666 4.18239 5.15625V13.75V16.8438C4.18239 17.4133 4.64404 17.875 5.21364 17.875H8.30739H12.7761C13.3457 17.875 13.8074 17.4133 13.8074 16.8438V8.25V5.15625C13.8074 4.58666 13.3457 4.125 12.7761 4.125Z" fill="#E0E0D1"/>
<g opacity="0.2">
<path opacity="0.2" d="M8.9949 6.53125H5.5574V7.21875H8.9949V6.53125Z" fill="#231F20"/>
</g>
<g opacity="0.2">
<path opacity="0.2" d="M12.4324 12.0312H5.5574V12.7188H12.4324V12.0312Z" fill="#231F20"/>
</g>
<g opacity="0.2">
<path opacity="0.2" d="M12.4324 10.3125H5.5574V11H12.4324V10.3125Z" fill="#231F20"/>
</g>
<g opacity="0.2">
<path opacity="0.2" d="M12.4324 8.59375H5.5574V9.28125H12.4324V8.59375Z" fill="#231F20"/>
</g>
<g opacity="0.2">
<path opacity="0.2" d="M12.4324 13.75H5.5574V14.4375H12.4324V13.75Z" fill="#231F20"/>
</g>
<g opacity="0.2">
<path opacity="0.2" d="M12.4324 15.4688H5.5574V16.1562H12.4324V15.4688Z" fill="#231F20"/>
</g>
<g opacity="0.2">
<path opacity="0.2" d="M19.0053 7.51575L16.5746 5.08509C16.1717 4.68222 15.519 4.68222 15.1161 5.08509L13.9006 6.30059L13.6575 6.54362L8.06749 12.134L7.41917 15.3749L7.09502 16.9953L8.71545 16.6712L11.9563 16.0229L17.5467 10.4325L17.7898 10.1894L19.0053 8.97394C19.4081 8.5714 19.4081 7.91862 19.0053 7.51575Z" fill="#231F20"/>
</g>
<path d="M17.5471 9.77454C17.1442 10.1774 16.4914 10.1774 16.0885 9.77454L13.6579 7.34388C13.255 6.94101 13.255 6.28823 13.6579 5.88535L15.1164 4.42682C15.5193 4.02395 16.1721 4.02395 16.5749 4.42682L19.0056 6.85748C19.4085 7.26035 19.4085 7.91313 19.0056 8.31601L17.5471 9.77454Z" fill="#C75C5C"/>
<path d="M13.9008 5.64252L8.0672 11.4761L9.03946 12.4484L14.873 6.61478L13.9008 5.64252Z" fill="#E0995E"/>
<path d="M14.873 6.61448L8.55328 12.9342L10.4978 14.8787L16.8175 8.55901L14.873 6.61448Z" fill="#F5CF87"/>
<path d="M16.8175 8.55932L10.9839 14.3929L11.9561 15.3652L17.7897 9.53158L16.8175 8.55932Z" fill="#E0995E"/>
<path d="M7.095 16.3374L8.71544 16.0133L7.41916 14.717L7.095 16.3374Z" fill="#4F5D73"/>
<path d="M8.06747 11.4761L7.41916 14.717L8.71544 16.0132L11.9563 15.3649L11.4703 14.8789V13.9067H9.52566V11.9622H8.55353L8.06747 11.4761Z" fill="white"/>
</svg>
