<svg width="22" height="22" viewBox="0 0 22 22" fill="none" xmlns="http://www.w3.org/2000/svg">
<path d="M2 7V9V10V13V14V19V20C2 21.105 2.8954 22 4 22H18C19.105 22 20 21.105 20 20V19V14V10V7H2Z" fill="#16A085"/>
<path d="M2 6V8V9V12V13V18V19C2 20.1 2.8954 21 4 21H18C19.105 21 20 20.1 20 19V18V13V9V6H2Z" fill="#ECF0F1"/>
<path d="M2 5V7V8V11V12V17V18C2 19.1 2.8954 20 4 20H18C19.105 20 20 19.1 20 18V17V12V8V5H2Z" fill="#BDC3C7"/>
<path d="M2 4V6V7V10V11V16V17C2 18.1 2.8954 19 4 19H18C19.105 19 20 18.1 20 17V16V11V7V4H2Z" fill="#ECF0F1"/>
<path d="M4 0C2.8954 0 2 0.8954 2 2V3V7V9V10V13V14V19V20C2 21.105 2.8954 22 4 22H6V21H4.5C3.6716 21 3 20.328 3 19.5C3 18.672 3.6716 18 4.5 18H17H18C19.105 18 20 17.105 20 16V15V10V6V3V2C20 0.8954 19.105 0 18 0H14H4Z" fill="#16A085"/>
<path d="M6.99998 0V18H7.99998H17H18C19.105 18 20 17.105 20 16V15V10V6V3V2C20 0.8954 19.105 0 18 0H14H7.99998H6.99998Z" fill="#1ABC9C"/>
</svg>
