<svg width="207" height="204" viewBox="0 0 207 204" fill="none" xmlns="http://www.w3.org/2000/svg">
<path d="M170.635 169.297H175.204C177.255 169.297 178.281 168.265 178.281 166.201V126.808C178.281 125.777 177.815 125.214 176.416 125.214C175.018 125.214 174.645 125.777 174.645 126.808V165.451H170.635C169.796 165.451 169.143 166.201 169.143 167.327C169.143 168.452 169.796 169.297 170.635 169.297ZM84.2919 169.578C85.5041 169.578 86.25 168.828 86.25 167.983V143.691H96.4135C98.4649 143.691 100.05 142.097 100.05 140.033V129.622C100.05 127.559 98.4649 125.964 96.4135 125.964H85.9703C83.9189 125.964 82.3338 127.559 82.3338 129.622V167.983C82.3338 168.828 83.0797 169.578 84.2919 169.578ZM86.3432 129.434H96.5068V133.468H86.3432V129.434ZM86.3432 136.469H96.5068V140.314H86.3432V136.469ZM157.208 168.64C159.259 168.64 160.565 167.327 160.565 165.263V160.105C160.565 158.041 159.259 156.728 157.208 156.728H141.17C139.119 156.728 137.814 158.041 137.814 160.105V165.263C137.814 167.327 139.119 168.64 141.17 168.64H157.208ZM141.543 160.105H156.835V165.357H141.543V160.105ZM41.5865 130.654C41.5865 128.59 40.1878 127.277 38.0432 127.277H31.05C28.9054 127.277 27.5068 128.59 27.5068 130.654V164.888C27.5068 166.952 28.9054 168.265 31.05 168.265H38.0432C40.1878 168.265 41.5865 166.952 41.5865 164.888V130.654ZM37.7635 164.419H31.1432V149.131H37.7635V164.419ZM37.7635 145.286H31.1432V131.123H37.7635V145.286ZM45.223 139.939C44.1973 139.939 43.6378 140.408 43.6378 141.721C43.6378 143.128 44.1041 143.503 45.223 143.503H68.4405C69.4662 143.503 70.0257 143.034 70.0257 141.721C70.0257 140.408 69.4662 139.939 68.4405 139.939H58.7432V132.623H66.6689C67.6946 132.623 68.2541 132.154 68.2541 130.841C68.2541 129.528 67.6946 128.966 66.6689 128.966H58.7432V126.808C58.7432 125.589 58.1838 125.026 56.6919 125.026C55.2 125.026 54.7338 125.589 54.7338 126.808V128.966H46.9946C45.9689 128.966 45.4095 129.434 45.4095 130.841C45.4095 132.248 45.8757 132.623 46.9946 132.623H54.7338V139.939H45.223ZM70.1189 151.757C70.1189 150.35 69.5595 149.881 68.5338 149.881H65.7365V146.223C65.7365 145.379 64.9905 144.629 63.7784 144.629C62.5662 144.629 61.8203 145.379 61.8203 146.223V149.881H45.223C44.1973 149.881 43.6378 150.35 43.6378 151.757C43.6378 153.164 44.1041 153.539 45.223 153.539H61.727V165.263H57.5311C56.6919 165.263 55.9459 166.014 55.9459 167.233C55.9459 168.452 56.6919 169.203 57.5311 169.203H62.2865C64.3378 169.203 65.6432 167.89 65.6432 165.826V153.446H68.4405C69.5595 153.539 70.1189 153.07 70.1189 151.757ZM50.0716 157.103C49.7919 156.447 49.5122 156.072 48.7662 156.072C47.927 156.072 46.4351 156.634 46.4351 157.666C46.4351 157.854 46.5284 158.135 46.6216 158.417L48.9527 164.794C49.2324 165.451 49.5122 165.826 50.2581 165.826C51.0973 165.826 52.5892 165.263 52.5892 164.232C52.5892 164.044 52.4959 163.763 52.4027 163.575L50.0716 157.103ZM169.609 158.041V128.778C169.609 127.746 169.143 127.183 167.745 127.183C166.346 127.183 165.973 127.746 165.973 128.778V158.041C165.973 159.073 166.439 159.636 167.745 159.636C169.143 159.636 169.609 159.167 169.609 158.041ZM112.918 162.731V151.945C112.918 149.881 111.332 148.287 109.281 148.287H96.6932C94.6419 148.287 93.0568 149.881 93.0568 151.945V162.731C93.0568 164.794 94.6419 166.389 96.6932 166.389H109.281C111.332 166.389 112.918 164.794 112.918 162.731ZM109.374 163.2H96.5068V158.792H109.374V163.2ZM109.374 155.978H96.5068V151.663H109.374V155.978ZM135.855 130.091V132.811C135.855 133.749 136.228 134.218 137.534 134.218C138.839 134.218 139.212 133.749 139.212 132.811V130.185H159.259V132.811C159.259 133.749 159.632 134.218 160.938 134.218C162.243 134.218 162.616 133.749 162.616 132.811V130.091C162.616 128.028 161.591 126.996 159.539 126.996H151.334V126.621C151.334 125.401 150.774 124.839 149.282 124.839C147.791 124.839 147.324 125.401 147.324 126.621V126.996H138.932C136.881 126.996 135.855 128.028 135.855 130.091ZM162.43 151.663C162.43 150.444 161.964 150.069 161.031 150.069H151.241V146.13H158.141C159.073 146.13 159.539 145.754 159.539 144.535C159.539 143.316 159.073 142.941 158.141 142.941H151.241V138.908H158.141C159.073 138.908 159.632 138.532 159.632 137.313C159.632 136.094 159.166 135.625 158.141 135.625H151.241V134.781C151.241 133.655 150.774 133.092 149.282 133.092C147.791 133.092 147.324 133.655 147.324 134.781V135.625H140.424C139.492 135.625 139.026 136.094 139.026 137.313C139.026 138.532 139.492 138.908 140.424 138.908H147.324V142.941H140.331C139.399 142.941 138.932 143.41 138.932 144.535C138.932 145.754 139.399 146.13 140.331 146.13H147.324V150.069H137.441C136.508 150.069 136.042 150.538 136.042 151.663C136.042 152.789 136.508 153.258 137.441 153.258H161.031C161.964 153.258 162.43 152.883 162.43 151.663ZM119.911 125.964H109.561C107.509 125.964 105.924 127.559 105.924 129.622V140.033C105.924 142.097 107.509 143.691 109.561 143.691H119.631V167.514C119.631 168.734 120.097 169.203 121.589 169.203C123.081 169.203 123.547 168.64 123.547 167.514V129.622C123.547 127.559 121.869 125.964 119.911 125.964ZM119.538 140.314H109.374V136.469H119.538V140.314ZM119.538 133.468H109.374V129.434H119.538V133.468ZM161.777 89.8538C161.031 89.8538 160.472 90.4165 160.565 91.1669C160.565 91.5421 160.658 91.6359 161.591 92.949C162.989 95.0124 163.082 95.2 163.828 95.2C164.481 95.2 165.32 94.6372 165.32 93.6993C165.227 92.6676 163.082 89.8538 161.777 89.8538ZM38.9757 102.141C38.9757 106.549 42.6122 110.113 47.3676 110.113C49.4189 110.113 51.2838 109.269 51.9365 107.956C52.2162 107.299 52.3095 106.643 52.3095 104.954V96.5131C52.9622 96.4193 53.7081 96.2317 54.9203 96.2317C56.6919 96.2317 62.6595 96.5131 62.6595 100.828C62.6595 104.11 59.5824 105.142 57.2514 105.423C55.4797 105.705 53.9878 105.892 53.9878 107.862C53.9878 109.457 54.9203 110.207 56.5054 110.207C62.5662 110.207 67.5081 106.455 67.5081 100.828C67.5081 95.2 62.1 91.9172 55.1068 91.9172C53.7081 91.9172 52.8689 92.011 52.2162 92.1048V89.291L56.2257 89.1972C56.7851 89.1972 58.8365 89.1035 58.8365 87.04C58.8365 86.3835 58.4635 85.5393 57.8108 85.1641C57.3446 84.8828 56.9716 84.8828 55.7595 84.8828L52.2162 85.0703V84.2262C52.2162 82.5379 52.2162 80.5683 49.9784 80.5683C47.7405 80.5683 47.7405 82.4441 47.7405 84.2262V85.2579L42.1459 85.4455C41.2135 85.4455 39.4419 85.5393 39.4419 87.6028C39.4419 88.0717 39.6284 89.8538 42.0527 89.76L47.7405 89.5724V92.949C43.9176 93.9807 38.9757 97.0759 38.9757 102.141ZM47.8338 103.829C47.8338 105.048 47.8338 105.423 47.0878 105.423C45.5027 105.423 43.7311 104.204 43.7311 101.953C43.7311 101.015 44.1041 98.5766 47.8338 97.5448V103.829ZM99.1176 97.92C99.1176 88.9159 89.5135 88.7283 88.9541 88.7283C85.1311 88.7283 81.7743 89.1972 77.2986 90.6979C75.3405 91.2607 74.0351 91.7297 74.0351 93.4179C74.0351 94.6372 74.8743 95.8566 76.1797 95.8566C76.7392 95.8566 77.6716 95.4814 77.7649 95.4814C83.173 93.6055 84.4784 93.1366 87.4622 93.1366C91.6581 93.1366 94.1757 94.4497 94.1757 97.92C94.1757 100.077 93.2432 101.39 92.5905 102.047C90.4459 104.486 85.5973 105.611 82.9865 105.799C81.7743 105.892 80.0027 105.986 80.0027 108.05C80.0027 109.269 80.8419 110.582 82.7067 110.582C83.5459 110.488 99.1176 109.55 99.1176 97.92ZM81.7743 80.3807C80.3757 80.3807 79.6297 81.6938 79.6297 82.5379C79.6297 84.0386 80.6554 84.5076 81.2149 84.6952C84.9446 86.3835 90.9122 87.04 92.3108 87.04C93.8959 87.04 94.5486 85.8207 94.5486 84.8828C94.5486 84.6952 94.5486 82.9131 92.4973 82.7255C90.6324 82.5379 88.5811 82.3503 85.1311 81.4124C84.5716 81.3186 82.2405 80.3807 81.7743 80.3807ZM117.953 80.7559C117.114 80.7559 116.368 81.131 116.088 81.9752C116.088 82.069 115.342 85.6331 115.249 85.8207C113.85 85.8207 113.477 85.8207 109.374 85.8207C107.976 85.8207 106.857 86.571 106.857 88.0717C106.857 89.3848 107.882 90.1352 108.908 90.229C109.374 90.229 113.197 90.229 113.943 90.229C113.197 92.1986 112.638 93.6055 110.959 96.7007C110.027 98.4828 109.934 98.6703 109.934 99.3269C109.934 100.546 110.866 101.859 112.265 101.859C113.011 101.859 113.197 101.766 115.155 100.265C116.368 99.4207 119.445 97.0759 123.734 97.0759C127.65 97.0759 129.142 99.3269 129.142 100.921C129.142 102.234 128.023 105.611 121.123 105.611C119.911 105.611 118.232 105.517 116.927 105.33C116.554 105.236 116.368 105.236 115.901 105.236C114.689 105.236 113.757 106.174 113.757 107.581C113.757 109.926 115.901 110.301 119.631 110.301C124.946 110.301 127.277 109.363 128.862 108.612C131.939 107.112 133.618 104.11 133.618 101.203C133.618 96.8883 130.168 93.1366 124.293 93.1366C123.641 93.1366 118.605 93.1366 116.088 95.669C117.207 93.5117 117.486 92.6676 118.419 90.229C121.403 90.1352 128.209 89.76 131.007 89.291C132.778 89.0097 133.058 87.7904 133.058 87.1338C133.058 86.1021 132.592 84.9766 130.913 84.9766C130.447 84.9766 128.023 85.2579 127.464 85.3517C125.505 85.5393 123.734 85.6331 119.818 85.7269C120.004 84.9766 120.284 83.6635 120.284 83.0069C120.191 80.7559 118.232 80.7559 117.953 80.7559ZM167.278 92.949C167.745 92.949 168.491 92.6676 168.491 91.6359C168.491 90.4165 166.346 87.8841 165.227 87.8841C164.481 87.8841 164.015 88.3531 164.015 89.1035C164.015 89.9476 165.786 92.3862 166.626 92.7614C166.905 92.8552 167.185 92.949 167.278 92.949ZM61.9135 81.8814C60.8878 81.8814 59.7689 82.7255 59.7689 84.0386C59.7689 84.6952 59.9554 84.9766 60.5149 85.8207C62.3797 88.2593 62.5662 88.4469 63.0324 89.1972C64.7108 91.9172 64.9905 92.1986 66.1095 92.1986C66.4824 92.1986 68.4405 91.9172 68.4405 89.76C68.4405 88.9159 66.8554 86.6648 66.2027 85.7269C63.6851 82.3503 62.8459 81.8814 61.9135 81.8814ZM158.141 89.8538C158.98 89.1973 161.404 87.4152 165.134 86.8524C166.812 86.571 168.211 86.3834 168.211 84.5076C168.211 84.2262 168.211 82.069 165.693 82.069C164.947 82.069 146.578 83.6635 143.035 83.7572C141.636 83.851 139.772 83.9448 139.772 86.1021C139.772 87.9779 140.984 88.5407 142.009 88.5407C142.476 88.5407 154.131 87.3214 155.343 87.1338C152.732 89.1972 148.816 92.2924 148.816 98.4828C148.816 99.9835 148.909 102.891 151.8 105.611C154.224 107.862 159.539 109.738 162.43 109.738C163.828 109.738 164.668 108.8 164.668 107.299C164.668 105.33 163.362 105.142 162.616 105.048C159.259 104.486 153.478 103.641 153.478 98.0138C153.385 94.5434 154.97 92.2924 158.141 89.8538ZM201.032 49.9917H128.955V39.5807H134.084C136.508 39.5807 138.653 38.08 139.585 35.829C140.518 33.5779 140.051 30.9517 138.28 29.2635L138.186 29.1697L107.696 1.68828C106.577 0.656552 105.085 0 103.5 0C101.915 0 100.423 0.656552 99.3041 1.68828L68.8135 29.1697L68.7203 29.2635C67.0419 31.0455 66.4824 33.5779 67.4149 35.829C68.3473 38.08 70.4919 39.5807 72.9162 39.5807H78.0446V49.9917H5.96757C2.61081 49.9917 0 52.7117 0 55.9945V199.123C0 200.717 1.21216 201.937 2.7973 201.937H19.3014V196.309H5.59459V56.0883C5.59459 55.9007 5.78108 55.7131 5.96757 55.7131H80.8419C82.427 55.7131 83.6392 54.4938 83.6392 52.8993V36.7669C83.6392 35.1724 82.427 33.9531 80.8419 33.9531H72.9162C72.823 33.9531 72.6365 33.9531 72.5432 33.6717C72.45 33.4841 72.5432 33.2966 72.6365 33.2966L103.127 5.90897L103.22 5.81517C103.407 5.62759 103.593 5.62759 103.78 5.81517L103.873 5.90897L134.364 33.2966C134.457 33.3903 134.457 33.4841 134.457 33.6717C134.364 33.9531 134.177 33.9531 134.084 33.9531H126.158C124.573 33.9531 123.361 35.1724 123.361 36.7669V52.8055C123.361 54.4 124.573 55.6193 126.158 55.6193H201.032C201.219 55.6193 201.405 55.8069 201.405 55.9945V196.309H187.699V201.937H204.203C205.788 201.937 207 200.717 207 199.123V56.0883C207 52.7117 204.296 49.9917 201.032 49.9917ZM134.177 194.996C133.058 195.371 131.939 195.746 130.727 195.934L131.1 197.153C132.126 196.872 133.431 196.403 134.364 196.028L134.177 194.996ZM49.2324 194.433H51.75V193.214H49.2324V192.182H48.0203V193.214H45.5959V194.433H48.0203V195.84H45.1297V197.059H49.6986V198.279H45.3162V199.498H49.6986V202.124C49.6986 202.499 49.5122 202.499 49.3257 202.499H47.5541L47.8338 203.719H49.6054C50.6311 203.719 50.9108 203.343 50.9108 202.499V199.498H52.0297V198.279H50.9108V197.059H52.2162V195.84H49.3257V194.433H49.2324ZM46.3419 199.686L45.3162 200.436C46.0622 201.186 46.2486 201.468 46.9013 202.499L48.0203 201.655C47.5541 200.905 47.1811 200.436 46.3419 199.686ZM40.9338 202.968H44.7568V192.651H40.9338V202.968ZM42.0527 193.87H43.5446V197.153H42.0527V193.87ZM42.0527 198.279H43.5446V201.749H42.0527V198.279ZM130.913 193.589H131.753L131.286 194.527C132.032 194.714 132.685 194.996 133.151 195.371L133.711 194.433C133.245 194.152 132.592 193.87 131.846 193.683H135.016V196.497C135.016 196.59 135.016 196.684 134.83 196.684H133.431L133.711 197.903H135.203C135.762 197.903 136.228 197.81 136.228 196.778V192.557H130.913V193.589ZM103.127 197.153H106.764V202.218C106.764 202.499 106.67 202.499 106.484 202.499H105.085L105.272 203.719H107.136C107.976 203.719 107.976 202.874 107.976 202.593V192.651H103.127V197.153ZM104.246 193.683H106.67V194.527H104.246V193.683ZM104.246 195.371H106.67V196.215H104.246V195.371ZM128.396 195.09C127.464 195.465 125.785 195.934 124.759 196.121L125.132 197.341C125.785 197.153 127.65 196.59 128.489 196.215L128.396 195.09ZM131.753 197.622L130.447 197.434C130.354 197.716 130.354 197.903 130.168 198.372H126.158V203.531H135.203V198.372H131.38C131.566 197.997 131.659 197.81 131.753 197.622ZM133.991 202.499H127.464V201.374H133.991V202.499ZM133.991 199.404V200.342H127.464V199.404H133.991ZM31.3297 203.531H34.3135V198.935H31.3297V203.531ZM32.3554 199.967H33.2878V202.406H32.3554V199.967ZM113.291 192.182L112.078 192.651C112.265 192.932 112.545 193.495 112.824 194.152H111.239V196.966H112.451V195.277H121.03V196.966H122.242V194.152H120.657C121.03 193.495 121.216 193.214 121.496 192.557L120.097 192.182C119.631 193.589 119.445 193.964 119.258 194.246H117.3L117.673 194.152C117.486 193.495 117.02 192.651 116.741 192.182L115.528 192.651C115.808 193.12 116.088 193.495 116.368 194.246H113.943L114.223 194.152C113.943 193.401 113.57 192.651 113.291 192.182ZM29.9311 200.061H30.9568V195.559H29.9311V193.683H31.05V192.557H26.9473V203.531H31.05V202.406H29.9311V200.061ZM28.0662 193.683H28.8122V195.559H28.0662V193.683ZM28.8122 202.312H28.0662V200.061H28.8122V202.312ZM29.7446 199.029H27.973V196.59H29.7446V199.029ZM178.095 199.123L177.162 198.185C176.23 199.123 175.297 199.779 175.111 199.873C174.551 199.029 174.272 198.372 174.178 198.091H178.747V196.966H173.619V196.028H177.908V195.09H173.619V194.246H178.468V193.214H173.619V192.182H172.407V193.214H167.465V194.339H172.407V195.183H168.118V196.215H172.407V197.153H167.185V198.279H171.474C171.101 198.56 169.703 199.873 166.999 200.53L167.465 201.749C168.77 201.28 169.423 200.999 169.889 200.811V202.593C169.143 202.687 168.491 202.781 167.838 202.781L168.118 204C169.609 203.812 172.873 203.25 174.365 202.874V201.749C173.059 202.03 172.127 202.218 171.101 202.406V200.061C172.127 199.31 172.686 198.654 172.966 198.372C173.899 201.092 175.95 203.25 178.188 204L178.934 202.874C178.374 202.687 177.255 202.218 175.95 200.905C176.323 200.53 177.255 199.873 178.095 199.123ZM153.012 193.777H158.234V194.902H155.53V201.374H162.057V194.902H159.446V193.777H164.668V192.651H153.012V193.777ZM158.327 200.248H156.835V198.466H158.327V200.248ZM158.327 197.528H156.835V195.934H158.327V197.528ZM159.446 195.934H160.938V197.528H159.446V195.934ZM159.446 198.56H160.938V200.342H159.446V198.56ZM117.393 199.31C118.326 198.935 119.818 197.997 120.564 197.341V196.309H113.011V197.434H118.512C117.953 197.903 117.114 198.279 116.647 198.372H116.088V199.31H110.959V200.53H116.088V202.03C116.088 202.218 116.088 202.406 115.715 202.406H113.757L114.036 203.719H116.461C116.554 203.719 117.486 203.625 117.486 202.687V200.436H122.708V199.217H117.486V199.31H117.393ZM33.9405 192.276L32.7284 192.088C32.0757 193.214 31.6095 193.777 30.5838 194.527L31.5162 195.465C31.7027 195.371 31.7027 195.277 31.8892 195.183V198.279H37.2973V194.902H32.1689C32.5419 194.621 32.6351 194.433 32.8216 194.246H38.0432V193.12H33.5676C33.7541 192.745 33.8473 192.557 33.9405 192.276ZM32.9149 195.84H36.1784V197.153H32.9149V195.84ZM102.008 192.651H97.3459V203.812H98.5581V197.247H102.008V192.651ZM100.796 196.121H98.5581V195.277H100.796V196.121ZM100.796 194.527H98.5581V193.683H100.796V194.527ZM34.873 203.531H37.8568V198.935H34.873V203.531ZM35.8986 199.967H36.9243V202.406H35.8986V199.967ZM139.399 198.935H144.061V197.903H139.399V198.935ZM139.399 203.625H144.061V199.779H139.399V203.625ZM140.518 200.811H142.942V202.499H140.518V200.811ZM139.399 197.153H144.061V196.028H139.399V197.153ZM89.0473 194.433V193.214H88.3013V192.088H87.0892V193.214H84.8513V192.088H83.6392V193.214H82.9865V194.433H83.7324V199.31H82.8V200.436H89.1405V199.31H88.3946V194.433H89.0473ZM87.1824 199.31H84.8513V198.279H87.1824V199.31ZM87.1824 197.341H84.8513V196.403H87.1824V197.341ZM87.1824 195.371H84.8513V194.527H87.1824V195.371ZM105.458 197.903H99.7703V202.499H105.458V197.903ZM104.339 201.468H100.982V200.53H104.339V201.468ZM104.339 199.779H100.982V198.935H104.339V199.779ZM144.434 194.246H139.026V195.371H144.434V194.246ZM89.6068 196.59C89.6068 200.53 88.9541 201.749 88.0216 202.968L89.1405 203.812C89.9797 202.687 90.4459 201.374 90.6324 200.154H92.8703V202.218C92.8703 202.499 92.777 202.593 92.4973 202.593H91.2851L91.4716 203.812H93.0568C93.4297 203.812 94.0824 203.812 94.0824 202.781V192.463H89.7V196.59H89.6068ZM90.7257 193.683H92.6838V195.746H90.7257V193.683ZM90.7257 196.872H92.6838V198.935H90.6324L90.7257 196.872ZM139.399 193.589H144.061V192.463H139.399V193.589ZM148.163 192.182H146.858V195.652H144.434V196.966H146.858V203.812H148.163V196.966H150.588V195.652H148.163V192.182ZM82.6135 202.874L83.4527 203.812C84.1986 203.156 84.9446 202.218 85.4108 201.186L84.2919 200.717C84.0122 201.28 83.3595 202.218 82.6135 202.874ZM87.0892 200.623L86.25 201.28C86.623 201.655 87.2757 202.593 87.4622 202.968L88.3946 202.218C87.9284 201.468 87.2757 200.905 87.0892 200.623ZM56.6919 192.182C56.5054 193.308 56.1324 195.465 54.4541 197.247L55.0135 198.748C55.2932 198.466 55.4797 198.279 55.9459 197.716V203.812H57.1581V195.465C57.7176 193.964 57.9041 192.932 57.9973 192.37L56.6919 192.182ZM75.9932 192.182V193.401H73.0095V194.621H80.3757V193.401H77.2986V192.182H75.9932ZM78.3243 194.808L77.2986 195.371C78.2311 196.778 79.0703 197.341 79.723 197.716L80.5622 196.684C79.6297 196.121 79.0703 195.746 78.3243 194.808ZM73.5689 197.81C74.5014 197.247 75.3405 196.309 75.9 195.465L74.8743 194.902C74.5946 195.371 74.0351 196.121 72.7297 196.872L73.5689 197.81ZM63.1257 195.84H66.2027V194.621H62.6595V192.182H61.3541V194.621H57.9973V195.84H60.8878C60.1419 197.81 59.023 199.592 57.5311 200.999L58.3703 202.218C58.9297 201.655 60.2351 200.248 61.3541 197.341V203.812H62.6595V197.528C63.6851 200.436 65.0838 201.749 65.55 202.312L66.3892 200.999C64.4311 199.123 63.4986 196.872 63.1257 195.84ZM73.2892 198.654C72.823 198.185 72.1703 197.434 71.6108 196.309V195.559H72.9162V194.339H71.6108V191.994H70.3986V194.339H68.7203V195.559H70.3054C69.8392 197.059 69.4662 197.997 68.627 199.217L69.0932 200.905C69.7459 199.873 70.0257 199.217 70.3986 197.903V203.625H71.6108V197.997C71.9838 198.748 72.1703 199.029 72.7297 199.686L73.2892 198.654ZM128.862 196.59H127.557L127.743 197.81H129.142C129.888 197.81 130.261 197.434 130.261 196.872V192.557H124.946V193.589H129.049V196.403C129.049 196.59 128.955 196.59 128.862 196.59ZM79.1635 197.81L77.9513 197.434C77.4851 198.748 77.0189 199.498 76.5527 200.061C75.6203 198.935 75.3405 197.903 75.1541 197.434L74.0351 197.81C74.2216 198.56 74.6878 199.779 75.6203 200.999C74.5014 201.937 73.2892 202.406 72.45 202.593L73.1027 203.719C74.3149 203.25 75.527 202.687 76.4595 201.843C77.8581 203.062 79.2568 203.531 79.9095 203.719L80.4689 202.499C79.6297 202.218 78.4176 201.937 77.2986 200.905C78.4176 199.779 78.8838 198.466 79.1635 197.81ZM127.277 195.371L127.836 194.339C127.277 193.964 126.438 193.683 125.972 193.589L125.412 194.527C126.065 194.808 126.718 195.09 127.277 195.371ZM162.989 202.312H154.784V194.621H153.572V203.531H164.201V194.621H162.896V202.312H162.989ZM102.847 27.9503C96.6932 27.9503 91.6581 33.0152 91.6581 39.2055C91.6581 45.3959 96.6932 50.4607 102.847 50.4607C109.001 50.4607 114.036 45.3959 114.036 39.2055C114.036 33.0152 109.095 27.9503 102.847 27.9503ZM104.246 39.2055C104.246 39.6745 104.059 40.0497 103.686 40.331L99.8635 43.2386C99.5838 43.4262 99.304 43.52 99.0243 43.52C98.5581 43.52 98.1851 43.3324 97.9054 42.9572C97.4392 42.3007 97.5324 41.4566 98.1851 40.9876L101.449 38.4552V33.8593C101.449 33.109 102.101 32.4524 102.847 32.4524C103.593 32.4524 104.246 33.109 104.246 33.8593V39.2055Z" fill="white"/>
</svg>
