<svg width="190" height="207" viewBox="0 0 190 207" fill="none" xmlns="http://www.w3.org/2000/svg">
<g clip-path="url(#clip0)">
<path d="M167.3 128.7C163.2 128 156.1 127 156.1 120.1C156 115.9 157.9 113.1 161.8 110.1C162.8 109.3 165.8 107.1 170.4 106.4C172.5 106.1 174.2 105.8 174.2 103.5C174.2 103.2 174.2 100.5 171.1 100.5C170.2 100.5 147.7 102.5 143.4 102.6C141.7 102.7 139.4 102.8 139.4 105.5C139.4 107.8 140.9 108.5 142.1 108.5C142.7 108.5 156.9 107 158.4 106.8C155.2 109.3 150.4 113.1 150.4 120.7C150.4 122.5 150.5 126.1 154 129.4C157 132.2 163.5 134.4 167 134.4C168.7 134.4 169.7 133.3 169.7 131.4C169.8 129 168.2 128.8 167.3 128.7Z" fill="#424242"/>
<path d="M76 108.7C71.3 108.7 67.2 109.3 61.7 111.1C59.3 111.8 57.7 112.4 57.7 114.4C57.7 115.9 58.7 117.4 60.3 117.4C61 117.4 62.1 116.9 62.2 116.9C68.8 114.6 70.4 114 74.1 114C79.2 114 82.3 115.6 82.3 119.8C82.3 122.4 81.2 124 80.4 124.8C77.8 127.8 71.8 129.2 68.7 129.4C67.2 129.5 65.1 129.6 65.1 132.2C65.1 133.7 66.1 135.3 68.4 135.3C69.4 135.2 88.5 134 88.5 119.8C88.4 108.9 76.7 108.7 76 108.7Z" fill="#424242"/>
<path d="M170.5 107.7C169.6 107.7 169 108.3 169 109.2C169 110.2 171.2 113.2 172.2 113.7C172.5 113.8 172.9 113.9 173 113.9C173.6 113.9 174.5 113.6 174.5 112.3C174.5 110.8 171.8 107.7 170.5 107.7Z" fill="#424242"/>
<path d="M166.3 110.1C165.4 110.1 164.7 110.8 164.8 111.7C164.8 112.2 164.9 112.3 166.1 113.9C167.8 116.4 167.9 116.7 168.8 116.7C169.6 116.7 170.6 116 170.6 114.9C170.5 113.5 167.9 110.1 166.3 110.1Z" fill="#424242"/>
<path d="M42.9 100.3C41.6 100.3 40.3 101.3 40.3 102.9C40.3 103.7 40.5 104 41.2 105.1C43.5 108.1 43.7 108.3 44.3 109.2C46.4 112.5 46.7 112.9 48.1 112.9C48.6 112.9 51 112.6 51 109.9C51 108.9 49.1 106.1 48.3 105C45.1 100.9 44 100.3 42.9 100.3Z" fill="#424242"/>
<path d="M34.6 112.6C32.9 112.6 31.9 112.7 31.1 112.8V109.4L36 109.3C36.7 109.3 39.2 109.2 39.2 106.7C39.2 105.9 38.7 104.9 37.9 104.4C37.3 104.1 36.9 104.1 35.4 104.1L31.1 104.3V103.3C31.1 101.2 31.1 98.8 28.4 98.8C25.7 98.8 25.7 101.1 25.7 103.3V104.6L18.9 104.8C17.8 104.8 15.6 104.9 15.6 107.4C15.6 108 15.8 110.2 18.8 110L25.8 109.8V113.9C21.1 115.2 15.1 118.9 15.1 125.1C15.1 130.5 19.5 134.8 25.4 134.8C27.9 134.8 30.2 133.8 31 132.2C31.3 131.4 31.5 130.6 31.5 128.5V118.2C32.3 118.1 33.2 117.9 34.7 117.9C36.9 117.9 44.2 118.2 44.2 123.5C44.2 127.5 40.4 128.8 37.6 129.1C35.4 129.4 33.6 129.7 33.6 132.1C33.6 134.1 34.7 135 36.7 135C44.1 135 50.2 130.4 50.2 123.5C49.7 116.6 43.1 112.6 34.6 112.6ZM25.7 127.2C25.7 128.7 25.7 129.1 24.8 129.1C22.9 129.1 20.7 127.6 20.7 124.9C20.7 123.8 21.2 120.8 25.7 119.5V127.2Z" fill="#424242"/>
<path d="M119.2 114.1C118.4 114.1 112.2 114.1 109.2 117.2C110.6 114.6 110.9 113.5 112.1 110.5C115.7 110.4 124.1 109.9 127.5 109.4C129.7 109.1 130 107.6 130 106.8C130 105.5 129.4 104.2 127.4 104.2C126.8 104.2 123.9 104.5 123.2 104.7C120.8 104.9 118.6 105 113.8 105.2C114 104.3 114.4 102.7 114.4 101.9C114.3 99.1 111.9 99.1 111.5 99.1C110.5 99.1 109.6 99.6 109.2 100.6C109.2 100.7 108.3 105.1 108.2 105.3H101C99.3 105.3 97.9 106.2 97.9 108.1C97.9 109.7 99.2 110.6 100.4 110.7H106.6C105.7 113.1 105 114.8 103 118.6C101.9 120.8 101.7 121 101.7 121.8C101.7 123.3 102.8 124.9 104.6 124.9C105.5 124.9 105.7 124.8 108.1 123C109.6 122 113.3 119.1 118.6 119.1C123.4 119.1 125.2 121.9 125.2 123.8C125.2 125.4 123.8 129.5 115.4 129.5C113.9 129.5 111.9 129.4 110.3 129.2C109.8 129.1 109.6 129.1 109 129.1C107.5 129.1 106.4 130.2 106.4 132C106.4 134.9 109 135.3 113.6 135.3C120.1 135.3 123 134.2 124.9 133.2C128.7 131.4 130.7 127.7 130.7 124.1C130.6 118.7 126.4 114.1 119.2 114.1Z" fill="#424242"/>
<path d="M66.5 103.8C71.1 105.9 78.4 106.7 80.1 106.7C82 106.7 82.8 105.2 82.8 104.1C82.8 103.9 82.8 101.7 80.3 101.5C78 101.3 75.5 101 71.3 99.9C70.6 99.8 67.8 98.6 67.2 98.6C65.5 98.6 64.6 100.2 64.6 101.2C64.6 103 65.8 103.6 66.5 103.8Z" fill="#424242"/>
<path d="M165.3 151.9H155.7C155.6 150.1 154.6 149.2 152.5 149.2C150.4 149.2 149.5 150 149.4 151.9H139.6C136.7 151.9 135.1 153.5 135.1 156.4V159.8C135.1 161.4 136 162.2 137.8 162.2C139.6 162.2 140.5 161.4 140.5 159.8V157.1H164.3V159.8C164.3 161.4 165.2 162.2 167 162.2C168.9 162.2 169.7 161.4 169.7 159.8V156.4C169.8 153.5 168.2 151.9 165.3 151.9Z" fill="#424242"/>
<path d="M167.2 180.7H155.6V177H163.6C165.2 177 166 176.1 166 174.4C166 172.6 165.2 171.8 163.6 171.8H155.6V168H163.6C165.2 168 166.1 167.1 166.1 165.4C166.1 163.6 165.3 162.7 163.6 162.7H155.6V162.3C155.6 160.4 154.6 159.6 152.5 159.6C150.4 159.6 149.4 160.5 149.4 162.3V162.7H141.4C139.8 162.7 139 163.6 139 165.4C139 167.2 139.8 168 141.4 168H149.4V171.8H141.3C140.2 171.8 138.9 172.3 138.9 174.4C138.9 176.2 139.7 177 141.3 177H149.4V180.7H137.7C136.6 180.7 135.3 181.2 135.3 183.3C135.3 185.5 136.6 185.9 137.7 185.9H167.1C168.7 185.9 169.5 185 169.5 183.3C169.5 181.6 168.8 180.7 167.2 180.7Z" fill="#424242"/>
<path d="M178.5 191.3V154.8C178.5 153.1 177.5 152.2 175.6 152.2C173.7 152.2 172.8 153 172.8 154.8V191.3C172.8 193 173.8 193.9 175.6 193.9C177.6 193.9 178.5 193.1 178.5 191.3Z" fill="#424242"/>
<path d="M22.7 173.8H51.7C53.4 173.8 54.3 172.8 54.3 171C54.3 169.1 53.4 168.2 51.7 168.2H40.2V160.3H49.5C51.2 160.3 52.1 159.3 52.1 157.5C52.1 154.9 50.5 154.5 49.5 154.5H40.2V152.4C40.2 150.5 39.2 149.6 37 149.6C34.9 149.6 33.9 150.5 33.9 152.4V154.5H24.9C23.2 154.5 22.3 155.5 22.3 157.5C22.3 159.5 23.1 160.3 24.9 160.3H33.9V168.2H22.7C21 168.2 20.1 169.2 20.1 171C20.1 172.9 20.9 173.8 22.7 173.8Z" fill="#424242"/>
<path d="M162.4 189H142.4C139.5 189 137.6 190.9 137.6 193.8V200.2C137.6 203.1 139.5 205 142.4 205H162.4C165.3 205 167.2 203.1 167.2 200.2V193.8C167.2 190.9 165.3 189 162.4 189ZM161.3 199.8H143.5V194.5H161.3V199.8Z" fill="#424242"/>
<path d="M186.4 149.7C184.5 149.7 183.6 150.5 183.6 152.3V199.9H179.2C177.8 199.9 176.7 201.1 176.7 202.9C176.7 204.7 177.8 206 179.2 206H184.9C187.8 206 189.4 204.4 189.4 201.5V152.4C189.3 150.6 188.3 149.7 186.4 149.7Z" fill="#424242"/>
<path d="M51.8 180.5H48.9V176.6C48.9 175.1 47.6 174 45.8 174C44 174 42.7 175.1 42.7 176.6V180.5H22.7C21 180.5 20.1 181.5 20.1 183.5C20.1 185.5 20.9 186.3 22.7 186.3H42.7V199.7H38.1C36.6 199.7 35.5 201 35.5 202.8C35.5 204.6 36.6 205.9 38.1 205.9H44C46.9 205.9 48.8 204 48.8 201.1V186.3H51.6C52.5 186.4 53.1 186.2 53.6 185.8C54.1 185.3 54.3 184.6 54.3 183.6C54.4 181.5 53.5 180.5 51.8 180.5Z" fill="#424242"/>
<path d="M13.8 152.3H5C2 152.3 0 154.2 0 157.1V199.8C0 202.7 2 204.6 5 204.6H13.7C16.7 204.6 18.7 202.7 18.7 199.8V157.1C18.8 154.2 16.8 152.3 13.8 152.3ZM12.8 198.6H5.8V180.8H12.8V198.6ZM12.8 174.7H5.8V158.3H12.8V174.7Z" fill="#424242"/>
<path d="M29.4 189.9C29.4 189.9 29.3 189.9 29.4 189.9C29 189.1 28.6 188.2 27.2 188.2C25.8 188.2 23.7 189.1 23.7 190.8C23.7 191.1 23.8 191.5 24 192L26.9 200C27.2 200.8 27.7 201.7 29.1 201.7C30.5 201.7 32.6 200.8 32.6 199.1C32.6 198.6 32.4 198.1 32.3 198.1L29.4 189.9Z" fill="#424242"/>
<path d="M115.9 150.6H103C100.1 150.6 97.8 152.9 97.8 155.8V168.8C97.8 171.7 100.1 174 103 174H114.9V203.1C114.9 205 115.8 205.8 118 205.8C120.1 205.8 121.1 204.9 121.1 203.1V155.8C121 153 118.7 150.6 115.9 150.6ZM114.8 168.5H103.4V165H114.8V168.5ZM114.8 160H103.4V156.2H114.8V160Z" fill="#424242"/>
<path d="M86.6 150.6H73.6C70.7 150.6 68.4 152.9 68.4 155.8V203.7C68.4 205.2 69.7 206.3 71.5 206.3C73.2 206.3 74.6 205.2 74.6 203.7V174H86.7C89.6 174 91.9 171.7 91.9 168.8V155.8C91.7 152.9 89.5 150.6 86.6 150.6ZM86.1 168.5H74.6V165H86V168.5H86.1ZM86.1 160H74.6V156.2H86V160H86.1Z" fill="#424242"/>
<path d="M102.6 178.5H86.9C84 178.5 81.7 180.8 81.7 183.7V197.2C81.7 200.1 84 202.4 86.9 202.4H102.6C105.5 202.4 107.8 200.1 107.8 197.2V183.7C107.8 180.8 105.5 178.5 102.6 178.5ZM102.1 197.1H87.3V192.8H102.1V197.1ZM102.1 188.1H87.3V184H102.1V188.1Z" fill="#424242"/>
<path d="M94.7 29.4C90.5 29.4 87.1 32.8 87.1 37C87.1 41.2 90.5 44.6 94.7 44.6C98.9 44.6 102.3 41.2 102.3 37C102.2 32.8 98.9 29.4 94.7 29.4ZM95.6 37C95.6 37.3 95.5 37.6 95.2 37.8L92.6 39.8C92.4 39.9 92.2 40 92 40C91.7 40 91.4 39.9 91.2 39.6C90.9 39.2 90.9 38.6 91.4 38.3L93.6 36.6V33.5C93.6 33 94 32.6 94.5 32.6C95 32.6 95.4 33 95.4 33.5V37H95.6ZM117.3 66.9C117 66.5 116.6 66.4 116.1 66.4C115.6 66.4 115.1 66.6 114.7 67L113.7 67.7C113.2 68 112.9 68.5 112.7 68.9C112.5 69.4 112.5 69.8 112.8 70.2L114.5 72.6C114.6 72.8 114.8 72.9 115 73C115.2 73.1 115.4 73.1 115.6 73.1C116.1 73.1 116.6 72.9 117.2 72.5L118.2 71.8C118.7 71.5 119 71.1 119.2 70.6C119.4 70.1 119.4 69.7 119.1 69.3L117.3 66.9ZM117 70.8L116.6 71.1C116.1 71.4 116 71.2 115.9 71.1L114.4 69C114.3 68.9 114.3 68.8 114.3 68.8C114.3 68.7 114.4 68.5 114.6 68.4L115 68.1C115.2 68 115.3 67.9 115.4 67.9C115.5 67.9 115.6 68 115.6 68L117.1 70.1C117.2 70.2 117.2 70.3 117.2 70.3C117.3 70.6 117.2 70.7 117 70.8ZM110.4 67.8C110.4 67.8 110.3 67.7 110.4 67.8C110.3 67.7 110.2 67.7 110.2 67.7L108.6 68.4C108.5 68.4 108.5 68.5 108.5 68.6L109.7 71.2L107.6 72.1L106.4 69.5C106.4 69.5 106.4 69.4 106.3 69.4H106.2L104.6 70.1C104.5 70.1 104.5 70.2 104.5 70.3L107.5 77.1C107.5 77.2 107.6 77.2 107.6 77.2C107.6 77.2 107.6 77.2 107.7 77.2L109.3 76.5C109.3 76.5 109.4 76.5 109.4 76.4V76.3L108.1 73.3L110.2 72.4L111.5 75.4C111.5 75.5 111.6 75.5 111.7 75.5L113.3 74.8C113.3 74.8 113.4 74.8 113.4 74.7V74.6L110.4 67.8ZM64.3 57.7C64.3 57.2 64.2 56.7 63.9 56.2L63.4 55.3C63.3 55.1 63.2 54.9 63.3 54.8C63.3 54.7 63.4 54.7 63.5 54.6L64.3 54.2C64.4 54.2 64.5 54.1 64.5 54.2C64.6 54.2 64.7 54.4 64.9 54.6L65.2 55.2C65.5 55.7 65.2 55.8 65.2 55.9L64.7 56.2C64.7 56.2 64.6 56.2 64.6 56.3V56.4L65.4 57.9C65.4 58 65.5 58 65.6 58L66.2 57.7C66.6 57.5 66.8 57.1 66.9 56.6C66.9 56.1 66.8 55.6 66.5 55.1L65.9 53.9C65.6 53.4 65.3 53 64.8 52.7C64.4 52.4 63.9 52.4 63.5 52.6L62.4 53.1C62.2 53.2 62 53.4 61.9 53.6C61.6 54.2 61.7 54.9 62.1 55.8L62.6 56.7C62.9 57.2 62.7 57.3 62.6 57.4L61.2 58.1C61.1 58.1 61 58.2 61 58.1C60.9 58.1 60.8 57.9 60.6 57.7L60.3 57.1C60.2 56.9 60.2 56.8 60.2 56.6C60.2 56.5 60.3 56.4 60.4 56.4L61.1 56C61.1 56 61.2 56 61.2 55.9V55.8L60.4 54.3C60.4 54.3 60.4 54.2 60.3 54.2H60.2L59.3 54.7C59.1 54.8 58.9 55 58.8 55.2C58.5 55.8 58.6 56.5 59 57.4L59.6 58.6C59.9 59.1 60.2 59.5 60.6 59.8C60.9 60 61.1 60.1 61.4 60.1C61.6 60.1 61.8 60.1 61.9 60L63.6 59.1C64.1 58.6 64.3 58.3 64.3 57.7ZM85.6 72.2H85.5L83.5 73.6L82.7 71.4C82.7 71.4 82.7 71.3 82.6 71.3L81 70.8C80.9 70.8 80.9 70.8 80.9 70.8C80.9 70.8 80.8 70.9 80.9 70.9L82.2 74.6L81.5 76.8C81.5 76.9 81.5 77 81.6 77L83.2 77.5C83.2 77.5 83.2 77.5 83.3 77.5C83.3 77.5 83.4 77.5 83.4 77.4L84.1 75.2L87.3 73L87.4 72.9C87.4 72.8 87.4 72.8 87.3 72.8L85.6 72.2ZM65 64.1C64.7 63.7 64.9 63.5 64.9 63.4L67.2 61.6L67.8 62.3C67.8 62.3 67.9 62.3 67.9 62.4H68L68.8 61.8L68.9 61.7V61.6L68.3 60.9L69.2 60.2L69.3 60.1V60L68.3 58.6C68.3 58.5 68.2 58.5 68.1 58.6L67 59.3L66.5 58.6C66.5 58.6 66.4 58.6 66.4 58.5H66.3L65.5 59.1L65.4 59.2V59.3L65.9 60L63.6 62C63.4 62.1 63.3 62.3 63.2 62.6C63 63.2 63.2 64 63.8 64.7L64.3 65.3L64.4 65.4H64.5L65.3 64.8L65.4 64.7V64.6L65 64.1ZM124.6 59C124.4 58.8 124.2 58.8 124 58.7C123.3 58.7 122.7 59 122.1 59.7L121.8 60.1C121.4 60.5 121.2 61 121.2 61.6C120.7 61.7 120.2 62 119.8 62.6L119.5 63C119.3 63.3 119.1 63.6 119 63.9L118.9 63.8C118.8 63.7 118.7 63.8 118.7 63.8L117.6 65.1V65.2C117.6 65.2 117.6 65.3 117.7 65.3L121.9 68.9H122C122 68.9 122.1 68.9 122.1 68.8L123.2 67.5V67.4C123.2 67.4 123.2 67.3 123.1 67.3L120.2 64.8C120.1 64.7 120.1 64.6 120.1 64.4C120.1 64.2 120.2 64 120.4 63.8L120.6 63.6C121 63.2 121.2 63.3 121.2 63.4L124.3 66C124.4 66.1 124.5 66 124.5 66L125.6 64.7V64.6C125.6 64.6 125.6 64.5 125.5 64.5L122.5 61.9C122.5 61.9 122.4 61.8 122.4 61.7C122.4 61.4 122.5 61.2 122.7 60.9L122.9 60.7C123.1 60.5 123.2 60.4 123.3 60.4C123.4 60.4 123.4 60.4 123.5 60.5L126.6 63.1H126.7H126.8L127.9 61.8C128 61.7 127.9 61.6 127.9 61.6L124.6 59ZM80.9 68.9C80.9 68.9 80.9 68.8 80.9 68.9L79.4 68C79.3 68 79.2 68 79.2 68.1L78.4 69.5C78.3 69.4 78.2 69.2 77.9 69.1L77 68.5C76.5 68.2 76 68.1 75.5 68.1C75 68.1 74.6 68.3 74.4 68.7L72.9 71.2C72.8 71.4 72.7 71.6 72.8 71.8C72.9 72.5 73.3 73 74.1 73.5L74.9 74C75.1 74.1 75.4 74.2 75.6 74.3C75.6 74.3 75.6 74.3 75.6 74.4C75.6 74.4 75.6 74.5 75.7 74.5L77.2 75.3C77.2 75.3 77.2 75.3 77.3 75.3C77.3 75.3 77.4 75.3 77.4 75.2L81 69C80.9 69 80.9 68.9 80.9 68.9ZM77.6 70.7L76.3 73C76.2 73.1 76.1 73.3 75.6 73L75 72.6C74.8 72.5 74.7 72.4 74.6 72.2C74.6 72.1 74.6 72.1 74.6 72L75.9 69.8C75.9 69.7 76 69.6 76.2 69.6C76.3 69.6 76.4 69.6 76.6 69.7L77.2 70.1C77.8 70.4 77.7 70.7 77.6 70.7ZM74 66.6C74 66.6 73.9 66.6 74 66.6L72.7 65.4H72.6H72.5L69.9 68.3C69.8 68.4 69.6 68.4 69.4 68.4C69.3 68.4 69.1 68.3 68.9 68.1L68.6 67.8C68.2 67.4 68.3 67.2 68.4 67.2L71.1 64.2C71.2 64.1 71.1 64 71.1 64L69.8 62.9H69.7H69.6L66.7 66C66.5 66.2 66.4 66.4 66.4 66.6C66.3 67.3 66.6 67.9 67.4 68.6L67.9 69C68.2 69.2 68.5 69.4 68.8 69.5L68.7 69.6V69.7V69.8L70 70.9H70.1H70.2L73.9 66.8C73.9 66.7 74 66.7 74 66.6ZM101.9 77.3L101.5 77.4C101.3 77.4 101.1 77.4 101 77.3C100.9 77.3 100.9 77.2 100.9 77.1L100.5 74.2L101.4 74.1C101.5 74.1 101.5 74 101.5 73.9L101.4 72.9C101.4 72.9 101.4 72.8 101.3 72.8H101.2L100.3 72.9L100.1 71.8C100.1 71.7 100 71.7 99.9 71.7L98.3 72C98.3 72 98.2 72 98.2 72.1V72.2L98.4 73.3L97.5 73.4C97.4 73.4 97.4 73.5 97.4 73.6L97.5 74.6C97.5 74.6 97.5 74.7 97.6 74.7H97.7L98.6 74.6L99 77.6C99 77.8 99.1 78 99.3 78.2C99.7 78.6 100.2 78.8 100.9 78.8C101.1 78.8 101.3 78.8 101.5 78.8L102.3 78.7C102.4 78.7 102.4 78.6 102.4 78.5L102.3 77.5C102.1 77.4 102 77.3 101.9 77.3ZM94.6 71.6L92.1 71.5C92 71.5 92 71.5 92 71.6L89 78.9V79L89.1 79.1L90.8 79.2C90.9 79.2 90.9 79.2 90.9 79.1L91.5 77.5L94.5 77.6L95 79.3C95 79.4 95.1 79.4 95.1 79.4L96.8 79.5C96.8 79.5 96.9 79.5 96.9 79.4V79.3L94.5 71.8C94.7 71.6 94.7 71.6 94.6 71.6ZM92.1 76.2L93.3 73.5L94.3 76.3L92.1 76.2ZM60.7 50.8C60 48.8 59.5 46.7 59.2 44.6H57.5C57.8 46.9 58.3 49.1 59 51.2L60.7 50.8ZM94.7 0C72.7 0 55 17.7 55 39.6C55 41.3 55.1 43 55.3 44.6H57.6C57.4 43 57.3 41.3 57.3 39.6C57.3 19 74 2.3 94.7 2.3C115.3 2.3 132 19 132 39.6C132 41.3 131.9 43 131.7 44.6H134C134.2 43 134.3 41.3 134.3 39.6C134.3 17.7 116.6 0 94.7 0ZM130.2 54.3L129.7 54.1H129.6C129.6 54.1 129.5 54.1 129.5 54.2L128.7 55.7C128.7 55.8 128.7 55.9 128.8 55.9L129.1 56.1C129.2 56.1 129.4 56.3 129.2 56.8L129 57.3C128.9 57.5 128.8 57.6 128.7 57.7C128.6 57.7 128.6 57.8 128.4 57.7L127.6 57.3L129.2 54.2C129.2 54.1 129.2 54 129.1 54L127.6 53.3C127.2 53.1 126.7 53.1 126.3 53.4C125.9 53.7 125.6 54 125.3 54.6L124.8 55.7C124.5 56.2 124.4 56.8 124.4 57.3C124.4 57.8 124.7 58.2 125.1 58.4L127.7 59.7C127.9 59.8 128 59.8 128.2 59.8C128.3 59.8 128.3 59.8 128.4 59.8C129.1 59.7 129.6 59.2 130 58.4L130.5 57.3C130.8 56.8 130.9 56.3 130.8 55.8C130.8 54.9 130.6 54.5 130.2 54.3ZM126.4 56.5L126.1 56.3C126 56.3 125.8 56.1 126 55.6L126.2 55.1C126.3 54.9 126.4 54.8 126.5 54.7C126.6 54.7 126.6 54.6 126.8 54.7L127.1 54.9L126.4 56.5ZM77.9 37.2H74.4C72.8 37.2 71.3 36.2 70.7 34.7C70.1 33.2 70.4 31.5 71.6 30.3L71.7 30.2L92.3 11.7C93.1 11 94.1 10.6 95.1 10.6C96.2 10.6 97.2 11 97.9 11.7L118.5 30.2L118.6 30.3C119.8 31.4 120.1 33.2 119.5 34.7C118.9 36.2 117.4 37.2 115.8 37.2H112.3V44.5H130C129.7 46.6 129.2 48.7 128.5 50.7L130.1 51.1C130.8 49 131.3 46.7 131.6 44.5H130C130.2 42.9 130.4 41.2 130.4 39.5C130.4 19.8 114.4 3.8 94.6 3.8C74.8 3.8 58.8 19.8 58.8 39.5C58.8 41.2 59 42.9 59.2 44.5H77.8V37.2H77.9Z" fill="#0071C2"/>
</g>
<defs>
<clipPath id="clip0">
<rect width="189.3" height="206.3" fill="white"/>
</clipPath>
</defs>
</svg>
