<svg width="190" height="207" viewBox="0 0 190 207" fill="none" xmlns="http://www.w3.org/2000/svg">
<g clip-path="url(#clip0)">
<path d="M51.84 129.56H41V118.97H49.96C50.88 118.97 51.48 118.26 51.48 117.16C51.48 116.06 50.88 115.35 49.96 115.35H41V109.1C41 108.11 40.26 107.5 39.07 107.5C37.83 107.5 37.06 108.11 37.06 109.1V115.35H29.25C28.3 115.35 27.69 116.06 27.69 117.16C27.69 118.24 28.32 118.97 29.25 118.97H37.06V129.56H27.49C26.57 129.56 25.97 130.27 25.97 131.37C25.97 132.51 26.55 133.22 27.49 133.22H51.84C52.78 133.22 53.36 132.51 53.36 131.37C53.36 130.27 52.76 129.56 51.84 129.56ZM51.92 101.98H32.52C32.98 100.89 33.38 99.77 33.77 98.67L33.91 98.25L33.93 98.15C33.97 97.98 34 97.82 34 97.64C34 96.85 33.43 96.28 32.47 96.1C32.29 96.04 32.12 96.04 31.98 96.04C30.74 96.04 30.27 96.77 30.11 97.36C29.59 98.95 29.01 100.5 28.38 101.97H17.46C16.51 101.97 15.9 102.7 15.9 103.82C15.9 104.94 16.51 105.67 17.46 105.67H26.56C25.78 107.04 24.93 108.46 23.98 109.78C23.77 109.73 23.56 109.71 23.31 109.71C22.16 109.71 21.42 110.31 21.42 111.23V113.1C19.54 115.27 17.68 117.08 15.75 118.64C15.27 119.02 15 119.61 15 120.24C15 120.72 15.17 121.21 15.45 121.53C16.09 122.35 17.42 122.46 18.24 121.75C19.34 120.82 20.45 119.77 21.55 118.63C21.46 119.99 21.42 121.49 21.42 123.34V133.41C21.42 134.4 22.14 135.01 23.31 135.01C24.47 135.01 25.28 134.35 25.28 133.41V114.39C27.54 111.47 29.41 108.54 30.83 105.67H51.92C52.83 105.67 53.44 104.93 53.44 103.82C53.44 102.68 52.86 101.98 51.92 101.98ZM93.32 128.47C89.4 126.11 86.46 123.08 84.33 119.21C86.8 117.5 89.07 115.58 90.74 113.79C91.04 113.49 91.22 113.07 91.22 112.67C91.22 112.12 90.94 111.57 90.48 111.2C89.97 110.75 89.44 110.66 89.09 110.66C88.56 110.66 88.13 110.84 87.82 111.21C86.58 112.73 84.89 114.3 82.8 115.89C82.06 113.97 81.47 111.86 81.04 109.58H87.83C88.67 109.58 89.23 108.92 89.23 107.94C89.23 106.94 88.68 106.3 87.83 106.3H62.96C62.11 106.3 61.56 106.95 61.56 107.94C61.56 108.92 62.12 109.58 62.96 109.58H70.71C67.64 111.4 63.53 112.9 59.19 113.77C58.08 114.19 57.84 114.9 57.84 115.43C57.84 115.62 57.84 115.85 57.93 116.01C58.14 116.88 58.75 117.4 59.56 117.4C59.69 117.4 59.89 117.4 60.1 117.35C63.73 116.46 67.39 115.08 70.7 113.36C71.31 114.04 71.85 114.76 72.3 115.41C68.38 117.99 63.13 120.2 58.12 121.34C57.38 121.64 56.94 122.3 56.94 123.12C56.94 123.29 56.94 123.49 57 123.73C57.29 124.6 57.94 125.09 58.79 125.09C58.94 125.09 59.14 125.09 59.3 125.04C64.81 123.51 69.62 121.35 73.97 118.45C74.27 119.12 74.59 119.9 74.82 120.73C70.1 124.52 63.89 127.6 57.72 129.19C56.9 129.5 56.37 130.23 56.37 131.06C56.37 131.3 56.41 131.52 56.47 131.8C56.75 132.59 57.42 133.07 58.22 133.07C58.47 133.07 58.66 133.02 58.86 132.97C65.03 131.06 70.93 128.09 75.55 124.56C75.64 125.48 75.68 126.32 75.68 127.12C75.68 131.04 75.07 131.04 73.07 131.04C72.12 131.04 70.94 130.88 70.08 130.65C69.9 130.59 69.73 130.59 69.59 130.59C68.72 130.59 68.03 131.16 67.84 132.02C67.79 132.23 67.79 132.43 67.79 132.56C67.79 133.4 68.37 134.09 69.26 134.32C70.45 134.61 71.81 134.74 73.56 134.74C77.8 134.74 79.38 132.72 79.38 127.29C79.38 123.83 78.8 120.6 77.71 117.94C76.68 115.48 75.3 113.3 73.7 111.6C74.68 110.96 75.64 110.28 76.55 109.58H77.38C79.42 120.09 84.02 127.61 91.04 131.95C92.12 132.63 93.32 132.34 94 131.44C94.23 131.11 94.36 130.71 94.36 130.28C94.36 129.53 93.98 128.87 93.32 128.47ZM59.2 108.9C60.44 108.9 61.21 108.29 61.21 107.3V103.95C61.21 103.55 61.25 103.3 62.14 103.3H88.62C89.51 103.3 89.56 103.55 89.56 103.95V107.31C89.56 108.31 90.3 108.91 91.53 108.91C92.76 108.91 93.5 108.31 93.5 107.31V103.37C93.5 100.94 92.26 99.8 89.61 99.8H77.05V97.52C77.05 96.51 76.41 96 75.16 96C73.53 96 73.19 96.83 73.19 97.52V99.81H61.16C58.5 99.81 57.27 100.94 57.27 103.38V107.31C57.27 108.31 57.99 108.9 59.2 108.9ZM133.64 124.12H118.91C121.49 123.28 124.18 122.27 126.75 120.8C127.58 120.29 128.08 119.53 128.08 118.76C128.08 117.74 127.22 116.71 125.29 116.71H104.83C103.91 116.71 103.31 117.34 103.31 118.31C103.31 119.32 103.89 119.95 104.83 119.95H121.81C120.37 120.57 118.98 121.08 117.48 121.54C117.19 121.4 116.84 121.33 116.41 121.33C115.24 121.33 114.52 121.93 114.52 122.89V124.11H98.93C98.02 124.11 97.45 124.76 97.45 125.79C97.45 126.81 98.05 127.47 98.97 127.47H114.51V130.25C114.51 131.51 114.51 131.51 113.29 131.51C112.23 131.51 111.49 131.47 110.67 131.24C110.49 131.18 110.29 131.18 110.1 131.18C109.3 131.18 108.74 131.64 108.55 132.45C108.5 132.66 108.5 132.86 108.5 133.03C108.5 133.87 108.96 134.47 109.73 134.62C110.92 134.91 111.85 134.96 113.38 134.96C116.92 134.96 118.3 133.83 118.3 130.94V127.47H133.68C134.6 127.47 135.2 126.81 135.2 125.79C135.2 124.79 134.57 124.12 133.64 124.12ZM99.42 119.83C100.58 119.83 101.27 119.25 101.27 118.27V115.69C101.27 115.04 101.45 114.88 102.21 114.88H130.41C131.12 114.88 131.3 115.05 131.3 115.69V118.27C131.3 119.25 131.99 119.83 133.15 119.83C134.32 119.83 135 119.25 135 118.23V115.49C135 113.06 133.96 111.89 131.63 111.73L132.42 100.75V100.26C132.42 98.19 131.36 97.18 129.18 97.18H123.57C122.76 97.18 122.21 97.79 122.21 98.7C122.21 99.6 122.74 100.18 123.57 100.18H128.36C128.72 100.18 128.93 100.29 128.93 100.83V100.93L128.83 102.34H123.9C123.11 102.34 122.62 102.89 122.62 103.78C122.62 104.6 123.12 105.14 123.9 105.14H128.61L128.46 107.05H123.9C123.11 107.05 122.62 107.6 122.62 108.49C122.62 109.33 123.13 109.89 123.9 109.89H128.28L128.13 111.72H120.74C121 111.61 121.26 111.41 121.52 111.11C121.77 110.81 121.89 110.48 121.89 110.13C121.89 109.74 121.72 109.38 121.41 109.13L120.9 108.76C120.44 108.41 119.99 108.08 119.53 107.77C120.13 107.3 120.73 106.81 121.28 106.26C121.53 106.01 121.64 105.76 121.64 105.42C121.64 105.03 121.43 104.64 121.06 104.31C121 104.26 120.9 104.19 120.78 104.11C121 104 121.21 103.82 121.4 103.57C121.68 103.23 121.81 102.92 121.81 102.59C121.81 102.16 121.56 101.76 121.09 101.43C120.56 101.03 120.01 100.64 119.44 100.24C120.08 99.73 120.73 99.2 121.29 98.64C121.52 98.41 121.65 98.11 121.65 97.8C121.65 97.38 121.41 96.94 121.02 96.65C120.38 96.12 119.79 96.08 119.1 96.55C119.08 96.56 119.06 96.58 119.04 96.6C118.34 97.3 117.6 97.93 116.79 98.54C115.78 97.92 114.69 97.3 113.49 96.67C113.36 96.63 113.19 96.57 113 96.57C112.6 96.57 112.18 96.81 111.74 97.32C111.57 97.61 111.48 97.87 111.48 98.13C111.48 98.6 111.72 98.99 112.13 99.2C112.78 99.56 113.4 99.91 113.98 100.26L114.06 100.31C113.23 100.78 112.25 101.24 110.95 101.77C110.59 101.95 110.37 102.32 110.37 102.76C110.37 103.07 110.47 103.42 110.62 103.68C110.95 104.26 111.56 104.59 112.21 104.45C112.07 104.56 111.96 104.69 111.86 104.84C111.64 105.17 111.55 105.44 111.55 105.74C111.55 106.17 111.79 106.53 112.15 106.68L112.7 106.99C113.15 107.25 113.6 107.5 114.03 107.76C113.07 108.24 112.05 108.66 110.99 109.03C110.52 109.19 110.24 109.6 110.24 110.16C110.24 110.35 110.27 110.72 110.44 110.93C110.6 111.29 110.87 111.56 111.19 111.71H104.34L104.25 109.88H108.64C109.43 109.88 109.92 109.34 109.92 108.48C109.92 107.61 109.42 107.04 108.64 107.04H104.13L104.04 105.17H108.68C109.47 105.17 109.96 104.63 109.96 103.77C109.96 102.9 109.46 102.33 108.68 102.33H103.88L103.85 101.52C103.85 101.1 103.95 100.87 104.5 100.74C106.39 100.31 107.99 99.85 109.37 99.34C109.94 99.13 110.31 98.64 110.31 98.09C110.31 97.79 110.22 97.48 109.99 97.09C109.42 96.3 108.64 96.1 107.81 96.44C106.61 96.98 105.02 97.47 103.09 97.89C101.11 98.34 100.34 99.26 100.34 101.16L100.81 111.73C98.53 111.92 97.51 113.09 97.51 115.48V118.22C97.57 119.25 98.25 119.83 99.42 119.83ZM113.69 104.28C113.66 104.26 113.63 104.25 113.59 104.24L113.49 104.22C113.36 104.18 113.23 104.15 113.09 104.15C113.06 104.15 113.02 104.15 112.99 104.15C114.14 103.61 115.53 102.91 116.85 102.07C117.64 102.64 118.47 103.24 119.3 103.89C119.35 103.93 119.4 103.96 119.44 103.99C119.33 104.04 119.22 104.11 119.12 104.2C119.11 104.21 119.1 104.22 119.09 104.23C118.46 104.86 117.75 105.46 116.88 106.09C116.27 105.73 115.65 105.39 115.03 105.04C114.58 104.78 114.14 104.53 113.69 104.28ZM116.84 109.55C117.63 110.11 118.5 110.74 119.54 111.53C119.64 111.61 119.75 111.67 119.86 111.71H112.4C114.21 110.95 115.59 110.28 116.84 109.55ZM152.34 108.08C152.34 107.73 152.24 107.38 152.03 107.01C151.49 106.21 150.41 106.05 149.43 106.65C147.16 108.05 143.04 109.94 140.06 110.95C139.29 111.19 138.77 111.88 138.77 112.66C138.77 112.91 138.82 113.17 138.92 113.41C139.18 114.1 139.82 114.51 140.62 114.51C140.95 114.51 141.28 114.45 141.62 114.32C144.49 113.19 148.81 111.19 151.51 109.5C152.04 109.17 152.34 108.65 152.34 108.08ZM159.75 104.37C160.51 104.7 162.47 105.59 164.25 106.68C164.53 106.85 164.84 106.94 165.14 106.94C165.83 106.94 166.46 106.56 166.81 105.94C166.99 105.64 167.03 105.31 167.03 105.09C167.03 104.53 166.73 104 166.21 103.64C166.2 103.64 166.2 103.63 166.19 103.63C164.73 102.75 162.76 101.8 161.43 101.31C160.43 100.91 159.49 101.35 159.1 102.06C158.89 102.37 158.79 102.69 158.79 103.05C158.79 103.62 159.15 104.12 159.75 104.37ZM140.18 100.97H152.21C152.89 100.97 152.98 101.1 152.98 101.62V110.71C152.98 111.42 152.98 111.48 151.88 111.48C150.97 111.48 150.34 111.36 149.66 111.21C149.51 111.15 149.36 111.15 149.26 111.15C148.51 111.15 147.92 111.63 147.72 112.39C147.66 112.57 147.66 112.77 147.66 112.92C147.66 113.72 148.2 114.39 148.97 114.55C149.86 114.75 150.9 114.85 152.25 114.85C155.91 114.85 156.68 112.93 156.68 111.32V101.08C156.68 98.55 155.54 97.47 152.87 97.47H140.18C139.23 97.47 138.62 98.16 138.62 99.24C138.62 100.27 139.25 100.97 140.18 100.97ZM157.69 111.52C157.69 111.81 157.75 112.07 157.88 112.31C158.13 112.97 158.72 113.37 159.46 113.37C159.7 113.37 159.94 113.33 160.22 113.23C163.31 112.33 167.14 110.46 169.39 109.1C169.94 108.78 170.23 108.29 170.23 107.67C170.23 107.35 170.13 107.06 170.01 106.77C169.64 106.2 169.14 105.9 168.54 105.9C168.21 105.9 167.82 106.01 167.49 106.2C165.17 107.59 161.59 109.16 158.99 109.92C158.21 110.14 157.69 110.77 157.69 111.52ZM170.95 97.47H158.67C157.76 97.47 157.15 98.18 157.15 99.24C157.15 100.27 157.76 100.97 158.67 100.97H170.25C170.93 100.97 171.02 101.1 171.02 101.62V110.71C171.02 111.59 170.96 111.64 169.92 111.64C168.93 111.64 167.97 111.48 167.42 111.33C167.24 111.27 167.04 111.27 166.89 111.27C166.12 111.27 165.51 111.75 165.3 112.54C165.25 112.75 165.25 112.91 165.25 113.08C165.25 114 165.91 114.56 166.54 114.71C167.48 114.99 169.2 115.09 170.49 115.09C173.35 115.09 174.79 113.92 174.79 111.6V101.08C174.81 98.55 173.66 97.47 170.95 97.47ZM167.23 116.67H158.68C158.97 116.16 159.21 115.66 159.38 115.33C159.41 115.28 159.42 115.22 159.42 115.16C159.42 115.12 159.43 115.08 159.44 115.04C159.45 114.96 159.47 114.87 159.47 114.79C159.47 114.1 158.96 113.53 158.08 113.27C157.86 113.23 157.63 113.19 157.46 113.19C156.71 113.19 156.07 113.59 155.81 114.22C155.5 114.88 155.07 115.78 154.55 116.67H147.35C144.58 116.67 143.29 117.79 143.29 120.2V130.51C143.29 132.98 144.54 134.08 147.35 134.08H167.24C170.08 134.08 171.3 133.01 171.3 130.51V120.19C171.29 117.75 170.04 116.67 167.23 116.67ZM167.43 129.89C167.43 130.41 167.33 130.54 166.62 130.54H147.92C147.22 130.54 147.15 130.42 147.15 129.89V126.83H167.44V129.89H167.43ZM167.43 123.38H147.14V120.77C147.14 120.24 147.21 120.12 147.91 120.12H166.61C167.33 120.12 167.42 120.25 167.42 120.77V123.38H167.43ZM148.69 103.67C147.18 102.71 145.16 101.79 143.84 101.31C142.82 100.9 141.89 101.35 141.5 102.06C141.3 102.35 141.19 102.71 141.19 103.04C141.19 103.6 141.48 104.05 142.03 104.33C143.68 105.04 145.36 105.89 146.65 106.68C146.92 106.84 147.27 106.94 147.62 106.94C148.22 106.94 148.8 106.66 149.2 106.16C149.41 105.85 149.51 105.53 149.51 105.18C149.51 104.6 149.21 104.04 148.7 103.69C148.7 103.68 148.69 103.67 148.69 103.67Z" fill="#424242"/>
<path d="M29.45 189.74C29.18 188.99 28.72 188.13 27.49 188.13C26.12 188.13 24.21 189.05 24.21 190.55C24.21 190.84 24.28 191.18 24.42 191.6L27.33 199.71C27.6 200.46 28.06 201.32 29.29 201.32C30.63 201.32 32.57 200.48 32.57 198.96C32.57 198.66 32.49 198.3 32.36 197.97L29.45 189.74ZM13.81 151.79H4.9C1.97 151.79 0 153.66 0 156.44V199.71C0 202.49 1.97 204.36 4.9 204.36H13.81C16.74 204.36 18.7 202.49 18.7 199.71V156.43C18.7 153.66 16.74 151.79 13.81 151.79ZM13.12 198.78H5.46V180.15H13.13V198.78H13.12ZM13.12 174.57H5.46V157.37H13.13V174.57H13.12ZM52.5 167.82H40.56V159.35H50.27C51.94 159.35 52.69 158.53 52.69 156.68C52.69 154.82 51.92 153.95 50.27 153.95H40.56V151.6C40.56 149.82 39.61 149 37.58 149C35.57 149 34.67 149.8 34.67 151.6V153.95H25.2C23.57 153.95 22.84 154.79 22.84 156.68C22.84 158.55 23.54 159.35 25.2 159.35H34.67V167.82H22.97C21.36 167.82 20.61 168.67 20.61 170.49C20.61 172.36 21.31 173.16 22.97 173.16H52.5C54.17 173.16 54.92 172.34 54.92 170.49C54.92 168.69 54.13 167.82 52.5 167.82ZM52.5 180.39H49.35V176.12C49.35 174.78 48.12 173.76 46.5 173.76C44.84 173.76 43.59 174.77 43.59 176.12V180.39H22.97C21.34 180.39 20.61 181.23 20.61 183.12C20.61 184.99 21.31 185.79 22.97 185.79H43.58V199.9H38.63C37.29 199.9 36.27 201.13 36.27 202.75C36.27 204.41 37.28 205.66 38.63 205.66H44.7C47.52 205.66 49.35 203.84 49.35 201.01V185.78H52.5C54.17 185.78 54.92 184.96 54.92 183.11C54.92 181.26 54.15 180.39 52.5 180.39ZM102.58 178.41H86.61C83.8 178.41 81.59 180.61 81.59 183.43V197.05C81.59 199.86 83.79 202.07 86.61 202.07H102.58C105.39 202.07 107.6 199.87 107.6 197.05V183.43C107.6 180.61 105.4 178.41 102.58 178.41ZM102.33 197.23H86.74V192.41H102.33V197.23ZM102.33 188.07H86.74V183.31H102.33V188.07ZM91.32 168.32V155.2C91.32 152.39 89.12 150.18 86.3 150.18H72.99C70.18 150.18 67.97 152.38 67.97 155.2V203.73C67.97 205.07 69.22 206.09 70.88 206.09C72.54 206.09 73.79 205.08 73.79 203.73V173.34H86.29C89.11 173.34 91.32 171.13 91.32 168.32ZM85.99 168.32H73.8V164.18H85.99V168.32ZM85.99 159.65H73.8V155.32H85.99V159.65ZM116.08 150.18H102.89C100.08 150.18 97.87 152.38 97.87 155.2V168.32C97.87 171.13 100.07 173.34 102.89 173.34H115.33V203.11C115.33 204.87 116.21 205.65 118.18 205.65C120.19 205.65 121.09 204.87 121.09 203.11V155.2C121.1 152.38 118.89 150.18 116.08 150.18ZM115.33 168.32H103.14V164.18H115.33V168.32ZM115.33 159.65H103.14V155.32H115.33V159.65ZM184.14 189.99L187.48 186.15C187.93 185.62 188.13 185.18 188.13 184.67C188.13 183.43 186.26 181.94 185.09 181.94C184.51 181.94 183.92 182.26 183.38 182.88L180.1 186.72C179.65 187.24 179.45 187.7 179.45 188.2C179.45 189.44 181.32 190.93 182.49 190.93C183.24 190.92 183.79 190.39 184.14 189.99ZM187.45 174.51H164.3V168.82H184.17C185.73 168.82 186.46 168.01 186.46 166.28C186.46 164.53 185.71 163.68 184.17 163.68H164.3V157.99H186.03C187.59 157.99 188.32 157.18 188.32 155.45C188.32 153.7 187.57 152.85 186.03 152.85H164.3V151.68C164.3 149.95 163.39 149.14 161.45 149.14C159.52 149.14 158.66 149.92 158.66 151.68V152.85H136.87C135.35 152.85 134.64 153.68 134.64 155.45C134.64 157.21 135.33 157.99 136.87 157.99H158.66V163.68H138.73C137.21 163.68 136.5 164.51 136.5 166.28C136.5 168.04 137.19 168.82 138.73 168.82H158.66V174.51H135.45C133.93 174.51 133.22 175.34 133.22 177.11C133.22 178.87 133.91 179.65 135.45 179.65H149.2L134.19 189.68C133.72 190.01 133.1 190.54 133.1 191.41C133.1 192.54 134.44 194.57 135.77 194.57C136.29 194.57 136.74 194.41 137.22 194.07L158.67 179.65H187.47C189.04 179.65 189.76 178.84 189.76 177.11C189.74 175.36 188.99 174.51 187.45 174.51ZM169.47 182C168.98 181.44 168.4 181.13 167.83 181.13C166.56 181.13 164.73 182.88 164.73 184.11C164.73 184.61 164.97 185.11 165.51 185.73L183.84 204.93C184.41 205.5 185 205.78 185.59 205.78C186.86 205.78 188.69 203.99 188.69 202.74C188.69 202.16 188.43 201.64 187.84 201.06L169.47 182ZM169.62 200.34C169.42 198.75 168.69 197.97 167.36 197.97L153.1 199.29V188.81C153.1 187.14 152.19 186.33 150.31 186.33C148.38 186.33 147.52 187.09 147.52 188.81V199.86L139.62 200.63C138.76 200.73 137.62 201.07 137.62 202.8C137.62 205.38 138.97 205.77 139.82 205.77H139.83L167.56 203.17C169.01 203.02 169.69 202.31 169.69 200.94C169.69 200.83 169.67 200.71 169.65 200.6C169.63 200.53 169.62 200.46 169.62 200.34Z" fill="#424242"/>
<path d="M94.7 29.4C90.5 29.4 87.1 32.8 87.1 37C87.1 41.2 90.5 44.6 94.7 44.6C98.9 44.6 102.3 41.2 102.3 37C102.2 32.8 98.9 29.4 94.7 29.4ZM95.6 37C95.6 37.3 95.5 37.6 95.2 37.8L92.6 39.8C92.4 39.9 92.2 40 92 40C91.7 40 91.4 39.9 91.2 39.6C90.9 39.2 90.9 38.6 91.4 38.3L93.6 36.6V33.5C93.6 33 94 32.6 94.5 32.6C95 32.6 95.4 33 95.4 33.5V37H95.6ZM117.3 66.9C117 66.5 116.6 66.4 116.1 66.4C115.6 66.4 115.1 66.6 114.7 67L113.7 67.7C113.2 68 112.9 68.5 112.7 68.9C112.5 69.4 112.5 69.8 112.8 70.2L114.5 72.6C114.6 72.8 114.8 72.9 115 73C115.2 73.1 115.4 73.1 115.6 73.1C116.1 73.1 116.6 72.9 117.2 72.5L118.2 71.8C118.7 71.5 119 71.1 119.2 70.6C119.4 70.1 119.4 69.7 119.1 69.3L117.3 66.9ZM117 70.8L116.6 71.1C116.1 71.4 116 71.2 115.9 71.1L114.4 69C114.3 68.9 114.3 68.8 114.3 68.8C114.3 68.7 114.4 68.5 114.6 68.4L115 68.1C115.2 68 115.3 67.9 115.4 67.9C115.5 67.9 115.6 68 115.6 68L117.1 70.1C117.2 70.2 117.2 70.3 117.2 70.3C117.3 70.6 117.2 70.7 117 70.8ZM110.4 67.8C110.4 67.8 110.3 67.7 110.4 67.8C110.3 67.7 110.2 67.7 110.2 67.7L108.6 68.4C108.5 68.4 108.5 68.5 108.5 68.6L109.7 71.2L107.6 72.1L106.4 69.5C106.4 69.5 106.4 69.4 106.3 69.4H106.2L104.6 70.1C104.5 70.1 104.5 70.2 104.5 70.3L107.5 77.1C107.5 77.2 107.6 77.2 107.6 77.2C107.6 77.2 107.6 77.2 107.7 77.2L109.3 76.5C109.3 76.5 109.4 76.5 109.4 76.4V76.3L108.1 73.3L110.2 72.4L111.5 75.4C111.5 75.5 111.6 75.5 111.7 75.5L113.3 74.8C113.3 74.8 113.4 74.8 113.4 74.7V74.6L110.4 67.8ZM64.3 57.7C64.3 57.2 64.2 56.7 63.9 56.2L63.4 55.3C63.3 55.1 63.2 54.9 63.3 54.8C63.3 54.7 63.4 54.7 63.5 54.6L64.3 54.2C64.4 54.2 64.5 54.1 64.5 54.2C64.6 54.2 64.7 54.4 64.9 54.6L65.2 55.2C65.5 55.7 65.2 55.8 65.2 55.9L64.7 56.2C64.7 56.2 64.6 56.2 64.6 56.3V56.4L65.4 57.9C65.4 58 65.5 58 65.6 58L66.2 57.7C66.6 57.5 66.8 57.1 66.9 56.6C66.9 56.1 66.8 55.6 66.5 55.1L65.9 53.9C65.6 53.4 65.3 53 64.8 52.7C64.4 52.4 63.9 52.4 63.5 52.6L62.4 53.1C62.2 53.2 62 53.4 61.9 53.6C61.6 54.2 61.7 54.9 62.1 55.8L62.6 56.7C62.9 57.2 62.7 57.3 62.6 57.4L61.2 58.1C61.1 58.1 61 58.2 61 58.1C60.9 58.1 60.8 57.9 60.6 57.7L60.3 57.1C60.2 56.9 60.2 56.8 60.2 56.6C60.2 56.5 60.3 56.4 60.4 56.4L61.1 56C61.1 56 61.2 56 61.2 55.9V55.8L60.4 54.3C60.4 54.3 60.4 54.2 60.3 54.2H60.2L59.3 54.7C59.1 54.8 58.9 55 58.8 55.2C58.5 55.8 58.6 56.5 59 57.4L59.6 58.6C59.9 59.1 60.2 59.5 60.6 59.8C60.9 60 61.1 60.1 61.4 60.1C61.6 60.1 61.8 60.1 61.9 60L63.6 59.1C64.1 58.6 64.3 58.3 64.3 57.7ZM85.6 72.2H85.5L83.5 73.6L82.7 71.4C82.7 71.4 82.7 71.3 82.6 71.3L81 70.8C80.9 70.8 80.9 70.8 80.9 70.8C80.9 70.8 80.8 70.9 80.9 70.9L82.2 74.6L81.5 76.8C81.5 76.9 81.5 77 81.6 77L83.2 77.5C83.2 77.5 83.2 77.5 83.3 77.5C83.3 77.5 83.4 77.5 83.4 77.4L84.1 75.2L87.3 73L87.4 72.9C87.4 72.8 87.4 72.8 87.3 72.8L85.6 72.2ZM65 64.1C64.7 63.7 64.9 63.5 64.9 63.4L67.2 61.6L67.8 62.3C67.8 62.3 67.9 62.3 67.9 62.4H68L68.8 61.8L68.9 61.7V61.6L68.3 60.9L69.2 60.2L69.3 60.1V60L68.3 58.6C68.3 58.5 68.2 58.5 68.1 58.6L67 59.3L66.5 58.6C66.5 58.6 66.4 58.6 66.4 58.5H66.3L65.5 59.1L65.4 59.2V59.3L65.9 60L63.6 62C63.4 62.1 63.3 62.3 63.2 62.6C63 63.2 63.2 64 63.8 64.7L64.3 65.3L64.4 65.4H64.5L65.3 64.8L65.4 64.7V64.6L65 64.1ZM124.6 59C124.4 58.8 124.2 58.8 124 58.7C123.3 58.7 122.7 59 122.1 59.7L121.8 60.1C121.4 60.5 121.2 61 121.2 61.6C120.7 61.7 120.2 62 119.8 62.6L119.5 63C119.3 63.3 119.1 63.6 119 63.9L118.9 63.8C118.8 63.7 118.7 63.8 118.7 63.8L117.6 65.1V65.2C117.6 65.2 117.6 65.3 117.7 65.3L121.9 68.9H122C122 68.9 122.1 68.9 122.1 68.8L123.2 67.5V67.4C123.2 67.4 123.2 67.3 123.1 67.3L120.2 64.8C120.1 64.7 120.1 64.6 120.1 64.4C120.1 64.2 120.2 64 120.4 63.8L120.6 63.6C121 63.2 121.2 63.3 121.2 63.4L124.3 66C124.4 66.1 124.5 66 124.5 66L125.6 64.7V64.6C125.6 64.6 125.6 64.5 125.5 64.5L122.5 61.9C122.5 61.9 122.4 61.8 122.4 61.7C122.4 61.4 122.5 61.2 122.7 60.9L122.9 60.7C123.1 60.5 123.2 60.4 123.3 60.4C123.4 60.4 123.4 60.4 123.5 60.5L126.6 63.1H126.7H126.8L127.9 61.8C128 61.7 127.9 61.6 127.9 61.6L124.6 59ZM80.9 68.9C80.9 68.9 80.9 68.8 80.9 68.9L79.4 68C79.3 68 79.2 68 79.2 68.1L78.4 69.5C78.3 69.4 78.2 69.2 77.9 69.1L77 68.5C76.5 68.2 76 68.1 75.5 68.1C75 68.1 74.6 68.3 74.4 68.7L72.9 71.2C72.8 71.4 72.7 71.6 72.8 71.8C72.9 72.5 73.3 73 74.1 73.5L74.9 74C75.1 74.1 75.4 74.2 75.6 74.3C75.6 74.3 75.6 74.3 75.6 74.4C75.6 74.4 75.6 74.5 75.7 74.5L77.2 75.3C77.2 75.3 77.2 75.3 77.3 75.3C77.3 75.3 77.4 75.3 77.4 75.2L81 69C80.9 69 80.9 68.9 80.9 68.9ZM77.6 70.7L76.3 73C76.2 73.1 76.1 73.3 75.6 73L75 72.6C74.8 72.5 74.7 72.4 74.6 72.2C74.6 72.1 74.6 72.1 74.6 72L75.9 69.8C75.9 69.7 76 69.6 76.2 69.6C76.3 69.6 76.4 69.6 76.6 69.7L77.2 70.1C77.8 70.4 77.7 70.7 77.6 70.7ZM74 66.6C74 66.6 73.9 66.6 74 66.6L72.7 65.4H72.6H72.5L69.9 68.3C69.8 68.4 69.6 68.4 69.4 68.4C69.3 68.4 69.1 68.3 68.9 68.1L68.6 67.8C68.2 67.4 68.3 67.2 68.4 67.2L71.1 64.2C71.2 64.1 71.1 64 71.1 64L69.8 62.9H69.7H69.6L66.7 66C66.5 66.2 66.4 66.4 66.4 66.6C66.3 67.3 66.6 67.9 67.4 68.6L67.9 69C68.2 69.2 68.5 69.4 68.8 69.5L68.7 69.6V69.7V69.8L70 70.9H70.1H70.2L73.9 66.8C73.9 66.7 74 66.7 74 66.6ZM101.9 77.3L101.5 77.4C101.3 77.4 101.1 77.4 101 77.3C100.9 77.3 100.9 77.2 100.9 77.1L100.5 74.2L101.4 74.1C101.5 74.1 101.5 74 101.5 73.9L101.4 72.9C101.4 72.9 101.4 72.8 101.3 72.8H101.2L100.3 72.9L100.1 71.8C100.1 71.7 100 71.7 99.9 71.7L98.3 72C98.3 72 98.2 72 98.2 72.1V72.2L98.4 73.3L97.5 73.4C97.4 73.4 97.4 73.5 97.4 73.6L97.5 74.6C97.5 74.6 97.5 74.7 97.6 74.7H97.7L98.6 74.6L99 77.6C99 77.8 99.1 78 99.3 78.2C99.7 78.6 100.2 78.8 100.9 78.8C101.1 78.8 101.3 78.8 101.5 78.8L102.3 78.7C102.4 78.7 102.4 78.6 102.4 78.5L102.3 77.5C102.1 77.4 102 77.3 101.9 77.3ZM94.6 71.6L92.1 71.5C92 71.5 92 71.5 92 71.6L89 78.9V79L89.1 79.1L90.8 79.2C90.9 79.2 90.9 79.2 90.9 79.1L91.5 77.5L94.5 77.6L95 79.3C95 79.4 95.1 79.4 95.1 79.4L96.8 79.5C96.8 79.5 96.9 79.5 96.9 79.4V79.3L94.5 71.8C94.7 71.6 94.7 71.6 94.6 71.6ZM92.1 76.2L93.3 73.5L94.3 76.3L92.1 76.2ZM60.7 50.8C60 48.8 59.5 46.7 59.2 44.6H57.5C57.8 46.9 58.3 49.1 59 51.2L60.7 50.8ZM94.7 0C72.7 0 55 17.7 55 39.6C55 41.3 55.1 43 55.3 44.6H57.6C57.4 43 57.3 41.3 57.3 39.6C57.3 19 74 2.3 94.7 2.3C115.3 2.3 132 19 132 39.6C132 41.3 131.9 43 131.7 44.6H134C134.2 43 134.3 41.3 134.3 39.6C134.3 17.7 116.6 0 94.7 0ZM130.2 54.3L129.7 54.1H129.6C129.6 54.1 129.5 54.1 129.5 54.2L128.7 55.7C128.7 55.8 128.7 55.9 128.8 55.9L129.1 56.1C129.2 56.1 129.4 56.3 129.2 56.8L129 57.3C128.9 57.5 128.8 57.6 128.7 57.7C128.6 57.7 128.6 57.8 128.4 57.7L127.6 57.3L129.2 54.2C129.2 54.1 129.2 54 129.1 54L127.6 53.3C127.2 53.1 126.7 53.1 126.3 53.4C125.9 53.7 125.6 54 125.3 54.6L124.8 55.7C124.5 56.2 124.4 56.8 124.4 57.3C124.4 57.8 124.7 58.2 125.1 58.4L127.7 59.7C127.9 59.8 128 59.8 128.2 59.8C128.3 59.8 128.3 59.8 128.4 59.8C129.1 59.7 129.6 59.2 130 58.4L130.5 57.3C130.8 56.8 130.9 56.3 130.8 55.8C130.8 54.9 130.6 54.5 130.2 54.3ZM126.4 56.5L126.1 56.3C126 56.3 125.8 56.1 126 55.6L126.2 55.1C126.3 54.9 126.4 54.8 126.5 54.7C126.6 54.7 126.6 54.6 126.8 54.7L127.1 54.9L126.4 56.5ZM77.9 37.2H74.4C72.8 37.2 71.3 36.2 70.7 34.7C70.1 33.2 70.4 31.5 71.6 30.3L71.7 30.2L92.3 11.7C93.1 11 94.1 10.6 95.1 10.6C96.2 10.6 97.2 11 97.9 11.7L118.5 30.2L118.6 30.3C119.8 31.4 120.1 33.2 119.5 34.7C118.9 36.2 117.4 37.2 115.8 37.2H112.3V44.5H130C129.7 46.6 129.2 48.7 128.5 50.7L130.1 51.1C130.8 49 131.3 46.7 131.6 44.5H130C130.2 42.9 130.4 41.2 130.4 39.5C130.4 19.8 114.4 3.8 94.6 3.8C74.8 3.8 58.8 19.8 58.8 39.5C58.8 41.2 59 42.9 59.2 44.5H77.8V37.2H77.9Z" fill="#0071C2"/>
</g>
<defs>
<clipPath id="clip0">
<rect width="189.3" height="206.3" fill="white"/>
</clipPath>
</defs>
</svg>
